<?xml version="1.0" standalone="no"?>
<!DOCTYPE svg PUBLIC "-//W3C//DTD SVG 20010904//EN"
 "http://www.w3.org/TR/2001/REC-SVG-20010904/DTD/svg10.dtd">
<svg version="1.0" xmlns="http://www.w3.org/2000/svg"
 width="2851.000000pt" height="2845.000000pt" viewBox="0 0 2851.000000 2845.000000"
 preserveAspectRatio="xMidYMid meet">

<g transform="translate(0.000000,2845.000000) scale(0.100000,-0.100000)"
fill="#000000" stroke="none">
<path d="M8860 27085 l0 -25 -250 0 -250 0 0 -30 0 -30 -195 0 -195 0 0 -25 0
-25 -140 0 -140 0 0 -30 0 -30 -110 0 -110 0 0 -25 0 -25 -110 0 -110 0 0 -30
0 -30 -115 0 -115 0 0 -30 0 -30 -80 0 c-79 0 -80 0 -80 -25 0 -25 -1 -25 -85
-25 l-85 0 0 -30 0 -30 -85 0 c-84 0 -85 0 -85 -25 0 -25 -1 -25 -85 -25 l-85
0 0 -30 0 -30 -80 0 c-79 0 -80 0 -80 -25 0 -24 -3 -25 -55 -25 -54 0 -55 0
-55 -30 0 -30 -1 -30 -55 -30 -52 0 -55 -1 -55 -25 0 -24 -3 -25 -60 -25 l-60
0 0 -30 0 -30 -80 0 -80 0 0 -30 c0 -30 -1 -30 -55 -30 -52 0 -55 -1 -55 -25
0 -24 -3 -25 -60 -25 l-60 0 0 -30 c0 -30 -1 -30 -55 -30 -52 0 -55 -1 -55
-25 0 -24 -3 -25 -55 -25 -54 0 -55 0 -55 -30 0 -25 -4 -30 -25 -30 -20 0 -25
-5 -25 -25 0 -24 -3 -25 -60 -25 l-60 0 0 -30 c0 -30 -1 -30 -55 -30 -54 0
-55 0 -55 -30 0 -30 -1 -30 -55 -30 -52 0 -55 -1 -55 -25 0 -20 -5 -25 -25
-25 -21 0 -25 -5 -25 -30 0 -30 -1 -30 -55 -30 -52 0 -55 -1 -55 -25 0 -24 -3
-25 -60 -25 l-60 0 0 -30 c0 -25 -4 -30 -25 -30 -20 0 -25 -5 -25 -25 0 -21
-5 -25 -30 -25 -27 0 -30 -3 -30 -30 0 -30 -1 -30 -55 -30 -54 0 -55 0 -55
-30 0 -25 -4 -30 -25 -30 -20 0 -25 -5 -25 -25 0 -24 -3 -25 -60 -25 l-60 0 0
-30 c0 -25 -4 -30 -25 -30 -20 0 -25 -5 -25 -25 0 -21 -5 -25 -30 -25 -27 0
-30 -3 -30 -30 0 -30 -1 -30 -55 -30 -52 0 -55 -1 -55 -25 0 -20 -5 -25 -25
-25 -21 0 -25 -5 -25 -30 0 -27 -3 -30 -30 -30 -27 0 -30 -3 -30 -30 0 -27 -3
-30 -30 -30 -25 0 -30 -4 -30 -25 0 -24 -3 -25 -55 -25 -54 0 -55 0 -55 -30 0
-25 -4 -30 -25 -30 -20 0 -25 -5 -25 -25 0 -21 -5 -25 -30 -25 -27 0 -30 -3
-30 -30 0 -25 -4 -30 -25 -30 -20 0 -25 -5 -25 -25 0 -21 -5 -25 -30 -25 -27
0 -30 -3 -30 -30 0 -25 -4 -30 -25 -30 -20 0 -25 -5 -25 -25 0 -21 -5 -25 -30
-25 -27 0 -30 -3 -30 -30 0 -27 -3 -30 -30 -30 -27 0 -30 -3 -30 -30 0 -25 -4
-30 -25 -30 -20 0 -25 -5 -25 -25 0 -21 -5 -25 -30 -25 -27 0 -30 -3 -30 -30
0 -25 -4 -30 -25 -30 -20 0 -25 -5 -25 -25 0 -21 -5 -25 -30 -25 -27 0 -30 -3
-30 -30 0 -25 -4 -30 -25 -30 -20 0 -25 -5 -25 -25 0 -21 -5 -25 -30 -25 -27
0 -30 -3 -30 -30 0 -27 -3 -30 -30 -30 -27 0 -30 -3 -30 -30 0 -25 -4 -30 -25
-30 -20 0 -25 -5 -25 -25 0 -21 -5 -25 -30 -25 -27 0 -30 -3 -30 -30 0 -25 -4
-30 -25 -30 -20 0 -25 -5 -25 -25 0 -21 -5 -25 -30 -25 -27 0 -30 -3 -30 -30
0 -25 -4 -30 -25 -30 -20 0 -25 -5 -25 -25 0 -21 -5 -25 -30 -25 -27 0 -30 -3
-30 -30 0 -27 -3 -30 -30 -30 -27 0 -30 -3 -30 -30 0 -25 -4 -30 -25 -30 -20
0 -25 -5 -25 -25 0 -21 -5 -25 -30 -25 -30 0 -30 -1 -30 -55 0 -52 -1 -55 -25
-55 -21 0 -25 -5 -25 -30 0 -27 -3 -30 -30 -30 -25 0 -30 -4 -30 -25 0 -20 -5
-25 -25 -25 -21 0 -25 -5 -25 -30 0 -27 -3 -30 -30 -30 -25 0 -30 -4 -30 -25
0 -21 -5 -25 -30 -25 -27 0 -30 -3 -30 -30 0 -25 -4 -30 -25 -30 -21 0 -25 -5
-25 -30 0 -27 -3 -30 -30 -30 -30 0 -30 -1 -30 -55 0 -52 -1 -55 -25 -55 -20
0 -25 -5 -25 -25 0 -21 -5 -25 -30 -25 -27 0 -30 -3 -30 -30 0 -25 -4 -30 -25
-30 -20 0 -25 -5 -25 -25 0 -21 -5 -25 -30 -25 -27 0 -30 -3 -30 -30 0 -25 -4
-30 -25 -30 -24 0 -25 -3 -25 -55 0 -54 0 -55 -30 -55 -27 0 -30 -3 -30 -30 0
-27 -3 -30 -30 -30 -25 0 -30 -4 -30 -25 0 -20 -5 -25 -25 -25 -24 0 -25 -3
-25 -55 0 -54 0 -55 -30 -55 -27 0 -30 -3 -30 -30 0 -25 -4 -30 -25 -30 -24 0
-25 -3 -25 -55 0 -54 0 -55 -30 -55 -27 0 -30 -3 -30 -30 0 -25 -4 -30 -25
-30 -24 0 -25 -3 -25 -55 0 -54 0 -55 -30 -55 -25 0 -30 -4 -30 -25 0 -21 -5
-25 -30 -25 -30 0 -30 -1 -30 -55 0 -52 -1 -55 -25 -55 -21 0 -25 -5 -25 -30
0 -27 -3 -30 -30 -30 -30 0 -30 -1 -30 -55 0 -52 -1 -55 -25 -55 -24 0 -25 -3
-25 -55 0 -54 0 -55 -30 -55 -30 0 -30 -1 -30 -55 0 -52 -1 -55 -25 -55 -24 0
-25 -3 -25 -60 l0 -60 -30 0 c-30 0 -30 -1 -30 -55 0 -54 0 -55 -30 -55 -30 0
-30 -1 -30 -55 0 -52 -1 -55 -25 -55 -24 0 -25 -3 -25 -55 0 -54 0 -55 -30
-55 -30 0 -30 -1 -30 -55 0 -52 -1 -55 -25 -55 -25 0 -25 -1 -25 -85 l0 -85
-30 0 c-30 0 -30 -1 -30 -55 0 -52 -1 -55 -25 -55 -24 0 -25 -3 -25 -55 0 -54
0 -55 -30 -55 l-30 0 0 -85 c0 -84 0 -85 -25 -85 -25 0 -25 -1 -25 -80 l0 -80
-30 0 -30 0 0 -115 0 -115 -30 0 -30 0 0 -80 c0 -79 0 -80 -25 -80 l-25 0 0
-115 0 -115 -30 0 -30 0 0 -140 0 -140 -25 0 -25 0 0 -110 0 -110 -30 0 -30 0
0 -220 0 -220 -25 0 -25 0 0 -390 0 -390 -30 0 -30 0 0 -250 0 -250 30 0 30 0
0 -365 0 -365 25 0 25 0 0 -165 0 -165 30 0 30 0 0 -140 0 -140 25 0 25 0 0
-110 0 -110 30 0 30 0 0 -110 0 -110 25 0 25 0 0 -115 0 -115 30 0 30 0 0 -80
0 -80 30 0 30 0 0 -85 c0 -84 0 -85 25 -85 25 0 25 -1 25 -85 l0 -85 30 0 c30
0 30 -1 30 -55 0 -52 1 -55 25 -55 25 0 25 -1 25 -85 l0 -85 30 0 c30 0 30 -1
30 -55 0 -52 1 -55 25 -55 25 0 25 -1 25 -80 l0 -80 30 0 30 0 0 -60 c0 -57 1
-60 25 -60 24 0 25 -3 25 -55 0 -54 0 -55 30 -55 30 0 30 -1 30 -55 0 -54 0
-55 30 -55 30 0 30 -1 30 -55 0 -52 1 -55 25 -55 24 0 25 -3 25 -55 0 -54 0
-55 30 -55 27 0 30 -3 30 -30 0 -25 4 -30 25 -30 24 0 25 -3 25 -55 0 -54 0
-55 30 -55 30 0 30 -1 30 -55 0 -52 1 -55 25 -55 20 0 25 -5 25 -25 0 -21 5
-25 30 -25 l30 0 0 -60 0 -60 30 0 c30 0 30 -1 30 -55 0 -52 1 -55 25 -55 20
0 25 -5 25 -25 0 -21 5 -25 30 -25 27 0 30 -3 30 -30 0 -25 4 -30 25 -30 24 0
25 -3 25 -55 0 -54 0 -55 30 -55 27 0 30 -3 30 -30 0 -25 4 -30 25 -30 20 0
25 -5 25 -25 0 -21 5 -25 30 -25 30 0 30 -1 30 -55 0 -54 0 -55 30 -55 27 0
30 -3 30 -30 0 -25 4 -30 25 -30 20 0 25 -5 25 -25 0 -21 5 -25 30 -25 l30 0
0 -60 c0 -57 1 -60 25 -60 20 0 25 -5 25 -25 0 -21 5 -25 30 -25 27 0 30 -3
30 -30 0 -25 4 -30 25 -30 20 0 25 -5 25 -25 0 -21 5 -25 30 -25 27 0 30 -3
30 -30 0 -25 4 -30 25 -30 20 0 25 -5 25 -25 0 -21 5 -25 30 -25 27 0 30 -3
30 -30 0 -27 3 -30 30 -30 25 0 30 -4 30 -25 0 -20 5 -25 25 -25 24 0 25 -3
25 -60 l0 -60 30 0 c25 0 30 -4 30 -25 0 -20 5 -25 25 -25 21 0 25 -5 25 -30
0 -27 3 -30 30 -30 25 0 30 -4 30 -25 0 -20 5 -25 25 -25 21 0 25 -5 25 -30 0
-27 3 -30 30 -30 25 0 30 -4 30 -25 0 -21 5 -25 30 -25 27 0 30 -3 30 -30 0
-25 4 -30 25 -30 21 0 25 -5 25 -30 0 -27 3 -30 30 -30 25 0 30 -4 30 -25 0
-20 5 -25 25 -25 21 0 25 -5 25 -30 0 -27 3 -30 30 -30 25 0 30 -4 30 -25 0
-20 5 -25 25 -25 21 0 25 -5 25 -30 0 -27 3 -30 30 -30 25 0 30 -4 30 -25 0
-21 5 -25 30 -25 27 0 30 -3 30 -30 0 -25 4 -30 25 -30 21 0 25 -5 25 -30 0
-27 3 -30 30 -30 25 0 30 -4 30 -25 0 -20 5 -25 25 -25 21 0 25 -5 25 -30 0
-27 3 -30 30 -30 25 0 30 -4 30 -25 0 -20 5 -25 25 -25 21 0 25 -5 25 -30 0
-27 3 -30 30 -30 25 0 30 -4 30 -25 0 -21 5 -25 30 -25 27 0 30 -3 30 -30 0
-25 4 -30 25 -30 21 0 25 -5 25 -30 0 -27 3 -30 30 -30 25 0 30 -4 30 -25 0
-20 5 -25 25 -25 21 0 25 -5 25 -30 0 -27 3 -30 30 -30 25 0 30 -4 30 -25 0
-20 5 -25 25 -25 21 0 25 -5 25 -30 0 -27 3 -30 30 -30 25 0 30 -4 30 -25 0
-20 5 -25 25 -25 21 0 25 -5 25 -30 0 -27 3 -30 30 -30 25 0 30 -4 30 -25 0
-21 5 -25 30 -25 27 0 30 -3 30 -30 0 -25 4 -30 25 -30 21 0 25 -5 25 -30 0
-27 3 -30 30 -30 25 0 30 -4 30 -25 0 -20 5 -25 25 -25 21 0 25 -5 25 -30 0
-27 3 -30 30 -30 25 0 30 -4 30 -25 0 -20 5 -25 25 -25 21 0 25 -5 25 -30 0
-27 3 -30 30 -30 25 0 30 -4 30 -25 0 -21 5 -25 30 -25 27 0 30 -3 30 -30 0
-25 4 -30 25 -30 21 0 25 -5 25 -30 0 -27 3 -30 30 -30 25 0 30 -4 30 -25 0
-20 5 -25 25 -25 21 0 25 -5 25 -30 0 -27 3 -30 30 -30 25 0 30 -4 30 -25 0
-20 5 -25 25 -25 21 0 25 -5 25 -30 0 -27 3 -30 30 -30 25 0 30 -4 30 -25 0
-21 5 -25 30 -25 27 0 30 -3 30 -30 0 -25 4 -30 25 -30 21 0 25 -5 25 -30 0
-27 3 -30 30 -30 25 0 30 -4 30 -25 0 -20 5 -25 25 -25 21 0 25 -5 25 -30 0
-27 3 -30 30 -30 25 0 30 -4 30 -25 0 -20 5 -25 25 -25 21 0 25 -5 25 -30 0
-27 3 -30 30 -30 25 0 30 -4 30 -25 0 -20 5 -25 25 -25 21 0 25 -5 25 -30 0
-27 3 -30 30 -30 25 0 30 -4 30 -25 0 -21 5 -25 30 -25 27 0 30 -3 30 -30 0
-25 4 -30 25 -30 21 0 25 -5 25 -30 0 -27 3 -30 30 -30 25 0 30 -4 30 -25 0
-20 5 -25 25 -25 21 0 25 -5 25 -30 0 -27 3 -30 30 -30 25 0 30 -4 30 -25 0
-20 5 -25 25 -25 21 0 25 -5 25 -30 l0 -30 60 0 c57 0 60 -1 60 -25 0 -20 5
-25 25 -25 21 0 25 -5 25 -30 0 -27 3 -30 30 -30 27 0 30 -3 30 -30 0 -25 4
-30 25 -30 20 0 25 -5 25 -25 0 -21 5 -25 30 -25 27 0 30 -3 30 -30 0 -30 1
-30 55 -30 52 0 55 -1 55 -25 0 -24 3 -25 55 -25 54 0 55 0 55 -30 0 -30 1
-30 55 -30 52 0 55 -1 55 -25 0 -21 5 -25 30 -25 27 0 30 -3 30 -30 l0 -30 80
0 80 0 0 -30 0 -30 85 0 c84 0 85 0 85 -25 l0 -25 110 0 110 0 0 -30 0 -30
170 0 170 0 0 -25 c0 -20 5 -25 25 -25 l25 0 0 -140 0 -140 30 0 30 0 0 -140
0 -140 30 0 30 0 0 -85 c0 -84 0 -85 25 -85 24 0 25 -3 25 -55 0 -54 0 -55 30
-55 30 0 30 -1 30 -55 0 -52 1 -55 25 -55 24 0 25 -3 25 -55 0 -54 0 -55 30
-55 30 0 30 -1 30 -55 0 -52 1 -55 25 -55 24 0 25 -3 25 -55 0 -54 0 -55 30
-55 27 0 30 -3 30 -30 0 -27 3 -30 30 -30 25 0 30 -4 30 -25 0 -20 5 -25 25
-25 21 0 25 -5 25 -30 0 -27 3 -30 30 -30 27 0 30 -3 30 -30 0 -25 4 -30 25
-30 24 0 25 -3 25 -55 0 -54 0 -55 30 -55 25 0 30 -4 30 -25 0 -24 3 -25 55
-25 54 0 55 0 55 -30 0 -25 4 -30 25 -30 20 0 25 -5 25 -25 0 -21 5 -25 30
-25 27 0 30 -3 30 -30 0 -27 3 -30 30 -30 25 0 30 -4 30 -25 0 -24 3 -25 55
-25 54 0 55 0 55 -30 0 -30 1 -30 55 -30 54 0 55 0 55 -30 0 -25 4 -30 25 -30
20 0 25 -5 25 -25 0 -24 3 -25 60 -25 l60 0 0 -30 c0 -30 1 -30 55 -30 52 0
55 -1 55 -25 0 -25 1 -25 80 -25 l80 0 0 -30 0 -30 85 0 c84 0 85 0 85 -25 l0
-25 195 0 195 0 0 -30 c0 -30 1 -30 55 -30 l55 0 0 -85 0 -85 30 0 30 0 0
-165 0 -165 25 0 c25 0 25 -1 25 -85 l0 -85 30 0 30 0 0 -80 c0 -79 0 -80 25
-80 24 0 25 -3 25 -60 l0 -60 30 0 c30 0 30 -1 30 -55 0 -54 0 -55 30 -55 30
0 30 -1 30 -55 0 -52 1 -55 25 -55 20 0 25 -5 25 -25 0 -21 5 -25 30 -25 l30
0 0 -60 c0 -57 1 -60 25 -60 20 0 25 -5 25 -25 0 -21 5 -25 30 -25 27 0 30 -3
30 -30 0 -25 4 -30 25 -30 20 0 25 -5 25 -25 0 -21 5 -25 30 -25 30 0 30 -1
30 -55 0 -54 0 -55 30 -55 27 0 30 -3 30 -30 0 -30 1 -30 55 -30 54 0 55 0 55
-30 0 -25 4 -30 25 -30 20 0 25 -5 25 -25 0 -21 5 -25 30 -25 27 0 30 -3 30
-30 0 -25 4 -30 25 -30 20 0 25 -5 25 -25 0 -21 5 -25 30 -25 27 0 30 -3 30
-30 0 -30 1 -30 55 -30 52 0 55 -1 55 -25 0 -24 3 -25 55 -25 54 0 55 0 55
-30 0 -30 1 -30 55 -30 52 0 55 -1 55 -25 0 -24 3 -25 55 -25 54 0 55 0 55
-30 l0 -30 85 0 85 0 0 -30 0 -30 85 0 c84 0 85 0 85 -25 l0 -25 110 0 110 0
0 -30 0 -30 140 0 140 0 0 -25 c0 -21 5 -25 30 -25 l30 0 0 -170 0 -170 25 0
25 0 0 -110 0 -110 30 0 30 0 0 -85 c0 -84 0 -85 25 -85 25 0 25 -1 25 -80 l0
-80 30 0 c27 0 30 -3 30 -30 0 -25 4 -30 25 -30 24 0 25 -3 25 -55 0 -54 0
-55 30 -55 30 0 30 -1 30 -55 0 -52 1 -55 25 -55 24 0 25 -3 25 -55 0 -54 0
-55 30 -55 27 0 30 -3 30 -30 0 -27 3 -30 30 -30 25 0 30 -4 30 -25 0 -20 5
-25 25 -25 21 0 25 -5 25 -30 0 -27 3 -30 30 -30 27 0 30 -3 30 -30 0 -25 4
-30 25 -30 24 0 25 -3 25 -55 l0 -55 55 0 c52 0 55 -1 55 -25 0 -21 5 -25 30
-25 27 0 30 -3 30 -30 0 -27 3 -30 30 -30 25 0 30 -4 30 -25 0 -20 5 -25 25
-25 21 0 25 -5 25 -30 0 -27 3 -30 30 -30 27 0 30 -3 30 -30 0 -30 1 -30 55
-30 52 0 55 -1 55 -25 0 -24 3 -25 55 -25 54 0 55 0 55 -30 0 -30 1 -30 55
-30 52 0 55 -1 55 -25 0 -21 5 -25 30 -25 27 0 30 -3 30 -30 l0 -30 80 0 c79
0 80 0 80 -25 0 -25 1 -25 85 -25 l85 0 0 -30 0 -30 85 0 85 0 0 -30 0 -30
220 0 220 0 0 -25 0 -25 115 0 115 0 0 25 0 25 220 0 220 0 0 30 0 30 85 0 85
0 0 30 0 30 110 0 110 0 0 25 c0 24 3 25 55 25 54 0 55 0 55 30 0 30 1 30 55
30 52 0 55 1 55 25 0 24 3 25 55 25 54 0 55 0 55 30 l0 30 60 0 c57 0 60 1 60
25 0 20 5 25 25 25 21 0 25 5 25 30 0 27 3 30 30 30 27 0 30 3 30 30 0 25 4
30 25 30 20 0 25 5 25 25 0 24 3 25 55 25 54 0 55 0 55 30 0 27 3 30 30 30 25
0 30 4 30 25 0 20 5 25 25 25 21 0 25 5 25 30 0 27 3 30 30 30 25 0 30 4 30
25 0 21 5 25 30 25 27 0 30 3 30 30 0 25 4 30 25 30 21 0 25 5 25 30 0 27 3
30 30 30 25 0 30 4 30 25 0 20 5 25 25 25 21 0 25 5 25 30 0 27 3 30 30 30 25
0 30 4 30 25 0 20 5 25 25 25 21 0 25 5 25 30 0 27 3 30 30 30 25 0 30 4 30
25 0 21 5 25 30 25 27 0 30 3 30 30 0 25 4 30 25 30 20 0 25 5 25 25 0 21 5
25 30 25 27 0 30 3 30 30 0 25 4 30 25 30 21 0 25 5 25 30 0 27 3 30 30 30 25
0 30 4 30 25 0 20 5 25 25 25 21 0 25 5 25 30 0 27 3 30 30 30 25 0 30 4 30
25 0 21 5 25 30 25 27 0 30 3 30 30 0 25 4 30 25 30 20 0 25 5 25 25 0 21 5
25 30 25 27 0 30 3 30 30 0 25 4 30 25 30 21 0 25 5 25 30 0 27 3 30 30 30 25
0 30 4 30 25 0 20 5 25 25 25 21 0 25 5 25 30 0 27 3 30 30 30 25 0 30 4 30
25 0 21 5 25 30 25 27 0 30 3 30 30 0 25 4 30 25 30 20 0 25 5 25 25 0 21 5
25 30 25 27 0 30 3 30 30 0 25 4 30 25 30 21 0 25 5 25 30 0 27 3 30 30 30 25
0 30 4 30 25 0 20 5 25 25 25 21 0 25 5 25 30 0 27 3 30 30 30 25 0 30 4 30
25 0 20 5 25 25 25 21 0 25 5 25 30 0 27 3 30 30 30 25 0 30 4 30 25 0 21 5
25 30 25 27 0 30 3 30 30 0 25 4 30 25 30 21 0 25 5 25 30 0 27 3 30 30 30 25
0 30 4 30 25 0 20 5 25 25 25 21 0 25 5 25 30 0 27 3 30 30 30 25 0 30 4 30
25 0 20 5 25 25 25 21 0 25 5 25 30 0 27 3 30 30 30 25 0 30 4 30 25 0 21 5
25 30 25 27 0 30 3 30 30 0 25 4 30 25 30 20 0 25 5 25 25 0 21 5 25 30 25 27
0 30 3 30 30 0 25 4 30 25 30 21 0 25 5 25 30 0 27 3 30 30 30 25 0 30 4 30
25 0 20 5 25 25 25 24 0 25 3 25 55 0 54 0 55 30 55 27 0 30 3 30 30 0 27 3
30 30 30 25 0 30 4 30 25 0 20 5 25 25 25 21 0 25 5 25 30 0 27 3 30 30 30 30
0 30 1 30 55 0 52 1 55 25 55 24 0 25 3 25 55 0 54 0 55 30 55 27 0 30 3 30
30 0 25 4 30 25 30 24 0 25 3 25 55 0 54 0 55 30 55 l30 0 0 85 c0 84 0 85 25
85 25 0 25 1 25 80 l0 80 30 0 30 0 0 140 0 140 30 0 30 0 0 140 0 140 55 0
c54 0 55 0 55 30 l0 30 195 0 195 0 0 25 c0 25 1 25 80 25 l80 0 0 30 0 30 85
0 c84 0 85 0 85 25 0 24 3 25 55 25 54 0 55 0 55 30 0 30 1 30 55 30 52 0 55
1 55 25 0 24 3 25 55 25 54 0 55 0 55 30 l0 30 60 0 60 0 0 30 c0 25 4 30 25
30 20 0 25 5 25 25 0 21 5 25 30 25 27 0 30 3 30 30 0 25 4 30 25 30 20 0 25
5 25 25 0 24 3 25 55 25 54 0 55 0 55 30 0 27 3 30 30 30 25 0 30 4 30 25 0
21 5 25 30 25 27 0 30 3 30 30 0 25 4 30 25 30 20 0 25 5 25 25 0 21 5 25 30
25 l30 0 0 60 c0 57 1 60 25 60 20 0 25 5 25 25 0 21 5 25 30 25 27 0 30 3 30
30 0 25 4 30 25 30 24 0 25 3 25 55 0 54 0 55 30 55 25 0 30 4 30 25 0 21 5
25 30 25 l30 0 0 60 c0 57 1 60 25 60 24 0 25 3 25 55 0 54 0 55 30 55 l30 0
0 80 c0 79 0 80 25 80 25 0 25 1 25 85 l0 85 30 0 30 0 0 85 c0 84 0 85 25 85
l25 0 0 195 0 195 30 0 c25 0 30 4 30 25 l0 25 165 0 165 0 0 30 0 30 115 0
115 0 0 25 c0 25 1 25 80 25 l80 0 0 30 0 30 85 0 85 0 0 30 c0 30 1 30 55 30
52 0 55 1 55 25 0 21 5 25 30 25 27 0 30 3 30 30 0 30 1 30 55 30 52 0 55 1
55 25 0 24 3 25 55 25 54 0 55 0 55 30 0 27 3 30 30 30 25 0 30 4 30 25 0 20
5 25 25 25 21 0 25 5 25 30 0 30 1 30 55 30 54 0 55 0 55 30 0 27 3 30 30 30
25 0 30 4 30 25 0 20 5 25 25 25 21 0 25 5 25 30 0 27 3 30 30 30 25 0 30 4
30 25 0 20 5 25 25 25 24 0 25 3 25 55 0 54 0 55 30 55 27 0 30 3 30 30 0 27
3 30 30 30 27 0 30 3 30 30 0 25 4 30 25 30 20 0 25 5 25 25 0 21 5 25 30 25
30 0 30 1 30 55 0 52 1 55 25 55 24 0 25 3 25 55 0 54 0 55 30 55 30 0 30 1
30 55 0 52 1 55 25 55 24 0 25 3 25 60 l0 60 30 0 30 0 0 80 0 80 30 0 30 0 0
85 c0 84 0 85 25 85 l25 0 0 140 0 140 30 0 30 0 0 110 0 110 80 0 80 0 0 30
0 30 170 0 170 0 0 25 c0 25 1 25 80 25 l80 0 0 30 0 30 85 0 c84 0 85 0 85
25 0 24 3 25 55 25 54 0 55 0 55 30 0 30 1 30 55 30 52 0 55 1 55 25 0 24 3
25 60 25 l60 0 0 30 c0 30 1 30 55 30 54 0 55 0 55 30 0 25 4 30 25 30 20 0
25 5 25 25 0 21 5 25 30 25 27 0 30 3 30 30 0 25 4 30 25 30 20 0 25 5 25 25
0 24 3 25 60 25 l60 0 0 30 c0 25 4 30 25 30 20 0 25 5 25 25 0 21 5 25 30 25
27 0 30 3 30 30 0 25 4 30 25 30 21 0 25 5 25 30 0 27 3 30 30 30 25 0 30 4
30 25 0 20 5 25 25 25 21 0 25 5 25 30 0 27 3 30 30 30 25 0 30 4 30 25 0 21
5 25 30 25 27 0 30 3 30 30 0 25 4 30 25 30 20 0 25 5 25 25 0 21 5 25 30 25
27 0 30 3 30 30 0 25 4 30 25 30 21 0 25 5 25 30 0 27 3 30 30 30 25 0 30 4
30 25 0 20 5 25 25 25 21 0 25 5 25 30 0 27 3 30 30 30 30 0 30 1 30 55 0 52
1 55 25 55 20 0 25 5 25 25 0 21 5 25 30 25 27 0 30 3 30 30 0 27 3 30 30 30
27 0 30 3 30 30 0 25 4 30 25 30 20 0 25 5 25 25 0 21 5 25 30 25 27 0 30 3
30 30 0 25 4 30 25 30 20 0 25 5 25 25 0 21 5 25 30 25 30 0 30 1 30 55 0 52
1 55 25 55 21 0 25 5 25 30 0 27 3 30 30 30 25 0 30 4 30 25 0 21 5 25 30 25
l30 0 0 60 c0 57 1 60 25 60 20 0 25 5 25 25 0 21 5 25 30 25 27 0 30 3 30 30
0 25 4 30 25 30 24 0 25 3 25 55 0 54 0 55 30 55 25 0 30 4 30 25 0 20 5 25
25 25 21 0 25 5 25 30 0 27 3 30 30 30 30 0 30 1 30 55 0 54 0 55 30 55 30 0
30 1 30 55 0 52 1 55 25 55 21 0 25 5 25 30 0 27 3 30 30 30 30 0 30 1 30 55
0 52 1 55 25 55 21 0 25 5 25 30 0 27 3 30 30 30 30 0 30 1 30 55 0 52 1 55
25 55 24 0 25 3 25 55 0 54 0 55 30 55 25 0 30 4 30 25 0 20 5 25 25 25 25 0
25 1 25 85 l0 85 30 0 c30 0 30 1 30 55 0 54 0 55 30 55 30 0 30 1 30 55 0 52
1 55 25 55 24 0 25 3 25 55 0 54 0 55 30 55 l30 0 0 60 c0 57 1 60 25 60 24 0
25 3 25 55 0 54 0 55 30 55 30 0 30 1 30 55 0 52 1 55 25 55 25 0 25 1 25 85
l0 85 30 0 30 0 0 80 0 80 30 0 30 0 0 85 c0 84 0 85 25 85 24 0 25 3 25 55 0
54 0 55 30 55 l30 0 0 110 0 110 25 0 25 0 0 115 0 115 30 0 30 0 0 110 0 110
25 0 c25 0 25 1 25 85 l0 85 30 0 30 0 0 190 0 190 30 0 30 0 0 170 0 170 25
0 25 0 0 390 0 390 25 0 25 0 0 220 0 220 -25 0 -25 0 0 390 0 390 -25 0 -25
0 0 170 0 170 -30 0 -30 0 0 195 0 195 -30 0 -30 0 0 80 c0 79 0 80 -25 80
l-25 0 0 115 0 115 -30 0 -30 0 0 110 0 110 -25 0 -25 0 0 110 0 110 -30 0
c-30 0 -30 1 -30 55 0 52 -1 55 -25 55 -25 0 -25 1 -25 85 l0 85 -30 0 -30 0
0 85 0 85 -30 0 -30 0 0 80 c0 79 0 80 -25 80 -24 0 -25 3 -25 55 0 54 0 55
-30 55 l-30 0 0 60 c0 57 -1 60 -25 60 -24 0 -25 3 -25 55 0 54 0 55 -30 55
-30 0 -30 1 -30 55 0 52 -1 55 -25 55 -24 0 -25 3 -25 55 0 54 0 55 -30 55
-30 0 -30 1 -30 55 0 54 0 55 -30 55 l-30 0 0 85 c0 84 0 85 -25 85 -20 0 -25
5 -25 25 0 21 -5 25 -30 25 l-30 0 0 60 c0 57 -1 60 -25 60 -24 0 -25 3 -25
55 0 54 0 55 -30 55 -25 0 -30 4 -30 25 0 20 -5 25 -25 25 -24 0 -25 3 -25 55
0 54 0 55 -30 55 -27 0 -30 3 -30 30 0 25 -4 30 -25 30 -24 0 -25 3 -25 55 0
54 0 55 -30 55 -30 0 -30 1 -30 55 0 54 0 55 -30 55 -27 0 -30 3 -30 30 0 25
-4 30 -25 30 -20 0 -25 5 -25 25 0 21 -5 25 -30 25 -30 0 -30 1 -30 55 0 52
-1 55 -25 55 -21 0 -25 5 -25 30 0 27 -3 30 -30 30 -27 0 -30 3 -30 30 0 25
-4 30 -25 30 -24 0 -25 3 -25 55 0 54 0 55 -30 55 -25 0 -30 4 -30 25 0 21 -5
25 -30 25 -27 0 -30 3 -30 30 0 25 -4 30 -25 30 -24 0 -25 3 -25 55 0 54 0 55
-30 55 -27 0 -30 3 -30 30 0 25 -4 30 -25 30 -20 0 -25 5 -25 25 0 21 -5 25
-30 25 -27 0 -30 3 -30 30 0 25 -4 30 -25 30 -20 0 -25 5 -25 25 0 21 -5 25
-30 25 -27 0 -30 3 -30 30 0 27 -3 30 -30 30 -25 0 -30 4 -30 25 0 20 -5 25
-25 25 -24 0 -25 3 -25 55 0 54 0 55 -30 55 -27 0 -30 3 -30 30 0 25 -4 30
-25 30 -21 0 -25 5 -25 30 0 27 -3 30 -30 30 -25 0 -30 4 -30 25 0 20 -5 25
-25 25 -21 0 -25 5 -25 30 0 27 -3 30 -30 30 -25 0 -30 4 -30 25 0 20 -5 25
-25 25 -21 0 -25 5 -25 30 0 27 -3 30 -30 30 -25 0 -30 4 -30 25 0 21 -5 25
-30 25 -27 0 -30 3 -30 30 0 25 -4 30 -25 30 -21 0 -25 5 -25 30 0 27 -3 30
-30 30 -25 0 -30 4 -30 25 0 20 -5 25 -25 25 -21 0 -25 5 -25 30 0 27 -3 30
-30 30 -25 0 -30 4 -30 25 0 20 -5 25 -25 25 -21 0 -25 5 -25 30 0 27 -3 30
-30 30 -25 0 -30 4 -30 25 0 21 -5 25 -30 25 -27 0 -30 3 -30 30 0 25 -4 30
-25 30 -21 0 -25 5 -25 30 0 27 -3 30 -30 30 -25 0 -30 4 -30 25 0 20 -5 25
-25 25 -21 0 -25 5 -25 30 0 27 -3 30 -30 30 -25 0 -30 4 -30 25 0 20 -5 25
-25 25 -21 0 -25 5 -25 30 0 27 -3 30 -30 30 -25 0 -30 4 -30 25 0 21 -5 25
-30 25 -27 0 -30 3 -30 30 0 25 -4 30 -25 30 -20 0 -25 5 -25 25 0 21 -5 25
-30 25 -27 0 -30 3 -30 30 0 30 -1 30 -55 30 -54 0 -55 0 -55 30 0 25 -4 30
-25 30 -20 0 -25 5 -25 25 0 21 -5 25 -30 25 -27 0 -30 3 -30 30 0 30 -1 30
-55 30 -52 0 -55 1 -55 25 0 21 -5 25 -30 25 -27 0 -30 3 -30 30 0 25 -4 30
-25 30 -20 0 -25 5 -25 25 0 24 -3 25 -55 25 -54 0 -55 0 -55 30 0 27 -3 30
-30 30 -27 0 -30 3 -30 30 0 30 -1 30 -55 30 -52 0 -55 1 -55 25 0 21 -5 25
-30 25 -27 0 -30 3 -30 30 0 30 -1 30 -55 30 -52 0 -55 1 -55 25 0 24 -3 25
-55 25 -54 0 -55 0 -55 30 0 25 -4 30 -25 30 -20 0 -25 5 -25 25 0 24 -3 25
-60 25 l-60 0 0 30 c0 30 -1 30 -55 30 -54 0 -55 0 -55 30 0 25 -4 30 -25 30
-20 0 -25 5 -25 25 0 24 -3 25 -55 25 -54 0 -55 0 -55 30 l0 30 -60 0 c-57 0
-60 1 -60 25 0 24 -3 25 -55 25 -54 0 -55 0 -55 30 0 30 -1 30 -55 30 -52 0
-55 1 -55 25 0 25 -1 25 -80 25 l-80 0 0 30 0 30 -60 0 -60 0 0 30 c0 30 -1
30 -55 30 -52 0 -55 1 -55 25 0 25 -1 25 -80 25 l-80 0 0 30 0 30 -60 0 c-57
0 -60 1 -60 25 0 25 -1 25 -80 25 l-80 0 0 30 0 30 -85 0 c-84 0 -85 0 -85 25
0 25 -1 25 -85 25 l-85 0 0 30 0 30 -80 0 c-79 0 -80 0 -80 25 l0 25 -115 0
-115 0 0 30 0 30 -110 0 -110 0 0 30 0 30 -110 0 -110 0 0 25 0 25 -170 0
-170 0 0 30 0 30 -165 0 -165 0 0 25 0 25 -360 0 -360 0 0 30 0 30 -500 0
-500 0 0 -30 0 -30 -335 0 -335 0 0 -25 0 -25 -195 0 -195 0 0 -30 0 -30 -140
0 -140 0 0 -25 0 -25 -140 0 -140 0 0 -30 0 -30 -110 0 -110 0 0 -30 0 -30
-110 0 -110 0 0 -25 c0 -25 -1 -25 -85 -25 l-85 0 0 -30 0 -30 -85 0 c-84 0
-85 0 -85 -25 0 -25 -1 -25 -85 -25 l-85 0 0 -30 0 -30 -80 0 c-79 0 -80 0
-80 -25 0 -25 -1 -25 -85 -25 l-85 0 0 -30 c0 -30 -1 -30 -55 -30 -52 0 -55
-1 -55 -25 0 -25 -1 -25 -85 -25 l-85 0 0 -30 c0 -30 -1 -30 -55 -30 -54 0
-55 0 -55 -30 l0 -30 -85 0 c-84 0 -85 0 -85 -25 0 -24 -3 -25 -55 -25 -54 0
-55 0 -55 -30 0 -30 -1 -30 -55 -30 -52 0 -55 -1 -55 -25 0 -24 -3 -25 -55
-25 -54 0 -55 0 -55 -30 0 -30 -1 -30 -55 -30 -52 0 -55 -1 -55 -25 0 -24 -3
-25 -55 -25 -54 0 -55 0 -55 -30 0 -30 -1 -30 -55 -30 -54 0 -55 0 -55 -30 0
-30 -1 -30 -55 -30 -52 0 -55 -1 -55 -25 0 -24 -3 -25 -60 -25 -57 0 -60 1
-60 25 0 20 -5 25 -25 25 -21 0 -25 5 -25 30 0 30 -1 30 -55 30 -54 0 -55 0
-55 30 0 30 -1 30 -55 30 -52 0 -55 1 -55 25 0 24 -3 25 -60 25 l-60 0 0 30
c0 30 -1 30 -55 30 -52 0 -55 1 -55 25 0 20 -5 25 -25 25 -21 0 -25 5 -25 30
l0 30 -85 0 c-84 0 -85 0 -85 25 0 24 -3 25 -55 25 -54 0 -55 0 -55 30 0 30
-1 30 -55 30 -54 0 -55 0 -55 30 0 30 -1 30 -55 30 -52 0 -55 1 -55 25 0 24
-3 25 -55 25 -54 0 -55 0 -55 30 l0 30 -85 0 c-84 0 -85 0 -85 25 0 25 -1 25
-85 25 l-85 0 0 30 c0 30 -1 30 -55 30 -52 0 -55 1 -55 25 0 25 -1 25 -85 25
l-85 0 0 30 0 30 -80 0 c-79 0 -80 0 -80 25 0 25 -1 25 -85 25 l-85 0 0 30 0
30 -110 0 -110 0 0 30 0 30 -115 0 -115 0 0 25 0 25 -110 0 -110 0 0 30 0 30
-165 0 -165 0 0 25 0 25 -140 0 -140 0 0 30 0 30 -280 0 -280 0 0 25 0 25
-750 0 -750 0 0 -25z m1170 -1615 l0 -30 275 0 275 0 0 -25 0 -25 170 0 170 0
0 -30 0 -30 165 0 165 0 0 -25 0 -25 115 0 115 0 0 -30 0 -30 110 0 110 0 0
-25 c0 -25 1 -25 85 -25 l85 0 0 -30 0 -30 80 0 80 0 0 -30 0 -30 85 0 c84 0
85 0 85 -25 0 -25 1 -25 85 -25 l85 0 0 -30 c0 -30 1 -30 55 -30 52 0 55 -1
55 -25 0 -24 3 -25 55 -25 54 0 55 0 55 -30 l0 -30 85 0 c84 0 85 0 85 -25 0
-24 3 -25 55 -25 l55 0 0 -55 c0 -54 0 -55 -30 -55 -27 0 -30 -3 -30 -30 0
-25 -4 -30 -25 -30 -21 0 -25 -5 -25 -30 0 -27 -3 -30 -30 -30 -25 0 -30 -4
-30 -25 0 -24 -3 -25 -55 -25 -54 0 -55 0 -55 -30 0 -27 -3 -30 -30 -30 -25 0
-30 -4 -30 -25 0 -20 -5 -25 -25 -25 -21 0 -25 -5 -25 -30 0 -27 -3 -30 -30
-30 -25 0 -30 -4 -30 -25 0 -20 -5 -25 -25 -25 -21 0 -25 -5 -25 -30 0 -27 -3
-30 -30 -30 -27 0 -30 -3 -30 -30 0 -27 -3 -30 -30 -30 -25 0 -30 -4 -30 -25
0 -20 -5 -25 -25 -25 -21 0 -25 -5 -25 -30 0 -27 -3 -30 -30 -30 -25 0 -30 -4
-30 -25 0 -20 -5 -25 -25 -25 -21 0 -25 -5 -25 -30 0 -27 -3 -30 -30 -30 -25
0 -30 -4 -30 -25 0 -20 -5 -25 -25 -25 -21 0 -25 -5 -25 -30 0 -27 -3 -30 -30
-30 -27 0 -30 -3 -30 -30 0 -25 -4 -30 -25 -30 -20 0 -25 -5 -25 -25 0 -21 -5
-25 -30 -25 -27 0 -30 -3 -30 -30 0 -27 -3 -30 -30 -30 -25 0 -30 -4 -30 -25
0 -20 -5 -25 -25 -25 -21 0 -25 -5 -25 -30 0 -27 -3 -30 -30 -30 -25 0 -30 -4
-30 -25 0 -20 -5 -25 -25 -25 -21 0 -25 -5 -25 -30 0 -27 -3 -30 -30 -30 -25
0 -30 -4 -30 -25 0 -20 -5 -25 -25 -25 -21 0 -25 -5 -25 -30 0 -27 -3 -30 -30
-30 -27 0 -30 -3 -30 -30 0 -27 -3 -30 -30 -30 -25 0 -30 -4 -30 -25 0 -20 -5
-25 -25 -25 -21 0 -25 -5 -25 -30 0 -27 -3 -30 -30 -30 -25 0 -30 -4 -30 -25
0 -20 -5 -25 -25 -25 -21 0 -25 -5 -25 -30 0 -27 -3 -30 -30 -30 -25 0 -30 -4
-30 -25 0 -20 -5 -25 -25 -25 -21 0 -25 -5 -25 -30 0 -27 -3 -30 -30 -30 -27
0 -30 -3 -30 -30 0 -27 -3 -30 -30 -30 -25 0 -30 -4 -30 -25 0 -20 -5 -25 -25
-25 -21 0 -25 -5 -25 -30 0 -27 -3 -30 -30 -30 -25 0 -30 -4 -30 -25 0 -20 -5
-25 -25 -25 -21 0 -25 -5 -25 -30 0 -27 -3 -30 -30 -30 -25 0 -30 -4 -30 -25
0 -20 -5 -25 -25 -25 -21 0 -25 -5 -25 -30 0 -27 -3 -30 -30 -30 -27 0 -30 -3
-30 -30 0 -27 -3 -30 -30 -30 -25 0 -30 -4 -30 -25 0 -20 -5 -25 -25 -25 -21
0 -25 -5 -25 -30 0 -27 -3 -30 -30 -30 -25 0 -30 -4 -30 -25 0 -20 -5 -25 -25
-25 -21 0 -25 -5 -25 -30 0 -27 -3 -30 -30 -30 -25 0 -30 -4 -30 -25 0 -20 -5
-25 -25 -25 -21 0 -25 -5 -25 -30 0 -27 -3 -30 -30 -30 -25 0 -30 -4 -30 -25
0 -20 -5 -25 -25 -25 -21 0 -25 -5 -25 -30 0 -27 -3 -30 -30 -30 -27 0 -30 -3
-30 -30 0 -27 -3 -30 -30 -30 -25 0 -30 -4 -30 -25 0 -20 -5 -25 -25 -25 -21
0 -25 -5 -25 -30 0 -27 -3 -30 -30 -30 -25 0 -30 -4 -30 -25 0 -20 -5 -25 -25
-25 -21 0 -25 -5 -25 -30 0 -27 -3 -30 -30 -30 -25 0 -30 -4 -30 -25 0 -20 -5
-25 -25 -25 -21 0 -25 -5 -25 -30 0 -27 -3 -30 -30 -30 -27 0 -30 -3 -30 -30
0 -27 -3 -30 -30 -30 -25 0 -30 -4 -30 -25 0 -20 -5 -25 -25 -25 -21 0 -25 -5
-25 -30 0 -27 -3 -30 -30 -30 -25 0 -30 -4 -30 -25 0 -20 -5 -25 -25 -25 -21
0 -25 -5 -25 -30 0 -27 -3 -30 -30 -30 -25 0 -30 -4 -30 -25 0 -20 -5 -25 -25
-25 -21 0 -25 -5 -25 -30 0 -27 -3 -30 -30 -30 -27 0 -30 -3 -30 -30 0 -27 -3
-30 -30 -30 -25 0 -30 -4 -30 -25 0 -20 -5 -25 -25 -25 -21 0 -25 -5 -25 -30
0 -27 -3 -30 -30 -30 -25 0 -30 -4 -30 -25 0 -20 -5 -25 -25 -25 -21 0 -25 -5
-25 -30 0 -27 -3 -30 -30 -30 -25 0 -30 -4 -30 -25 0 -20 -5 -25 -25 -25 -24
0 -25 -3 -25 -60 l0 -60 -30 0 c-25 0 -30 -4 -30 -25 0 -20 -5 -25 -25 -25
-21 0 -25 -5 -25 -30 0 -27 -3 -30 -30 -30 -25 0 -30 -4 -30 -25 0 -21 -5 -25
-30 -25 -30 0 -30 -1 -30 -55 0 -52 -1 -55 -25 -55 -24 0 -25 -3 -25 -55 0
-54 0 -55 -30 -55 l-30 0 0 -60 c0 -57 -1 -60 -25 -60 -20 0 -25 -5 -25 -25 0
-21 -5 -25 -30 -25 -30 0 -30 -1 -30 -55 0 -52 -1 -55 -25 -55 l-25 0 0 -115
0 -115 -30 0 -30 0 0 -80 0 -80 -30 0 -30 0 0 -170 0 -170 -25 0 -25 0 0 -275
0 -275 25 0 25 0 0 -170 0 -170 30 0 30 0 0 -110 0 -110 30 0 30 0 0 -85 c0
-84 0 -85 25 -85 24 0 25 -3 25 -55 0 -54 0 -55 30 -55 30 0 30 -1 30 -55 0
-52 1 -55 25 -55 24 0 25 -3 25 -55 0 -54 0 -55 30 -55 30 0 30 -1 30 -55 0
-52 1 -55 25 -55 21 0 25 -5 25 -30 0 -27 3 -30 30 -30 30 0 30 -1 30 -55 0
-54 0 -55 30 -55 25 0 30 -4 30 -25 0 -20 5 -25 25 -25 21 0 25 -5 25 -30 0
-27 3 -30 30 -30 27 0 30 -3 30 -30 0 -25 4 -30 25 -30 20 0 25 -5 25 -25 0
-21 5 -25 30 -25 27 0 30 -3 30 -30 0 -25 4 -30 25 -30 20 0 25 -5 25 -25 0
-21 5 -25 30 -25 27 0 30 -3 30 -30 0 -25 4 -30 25 -30 20 0 25 -5 25 -25 0
-21 5 -25 30 -25 27 0 30 -3 30 -30 0 -27 3 -30 30 -30 27 0 30 -3 30 -30 0
-30 1 -30 55 -30 52 0 55 -1 55 -25 0 -20 5 -25 25 -25 21 0 25 -5 25 -30 0
-30 1 -30 55 -30 52 0 55 -1 55 -25 0 -24 3 -25 60 -25 l60 0 0 -30 c0 -30 1
-30 55 -30 52 0 55 -1 55 -25 0 -24 3 -25 55 -25 54 0 55 0 55 -30 l0 -30 85
0 85 0 0 -30 0 -30 110 0 110 0 0 -25 0 -25 140 0 140 0 0 -30 0 -30 305 0
305 0 0 30 0 30 165 0 165 0 0 25 c0 25 1 25 85 25 l85 0 0 30 0 30 85 0 85 0
0 30 0 30 80 0 c79 0 80 0 80 25 0 21 5 25 30 25 27 0 30 3 30 30 0 30 1 30
55 30 52 0 55 1 55 25 0 24 3 25 55 25 54 0 55 0 55 30 0 30 1 30 55 30 52 0
55 1 55 25 0 21 5 25 30 25 27 0 30 3 30 30 0 30 1 30 55 30 54 0 55 0 55 30
0 27 3 30 30 30 25 0 30 4 30 25 0 24 3 25 55 25 54 0 55 0 55 30 0 25 4 30
25 30 20 0 25 5 25 25 0 24 3 25 55 25 54 0 55 0 55 30 0 27 3 30 30 30 25 0
30 4 30 25 0 24 3 25 55 25 54 0 55 0 55 30 0 27 3 30 30 30 27 0 30 3 30 30
0 30 1 30 55 30 52 0 55 1 55 25 0 20 5 25 25 25 21 0 25 5 25 30 0 30 1 30
55 30 52 0 55 1 55 25 0 21 5 25 30 25 27 0 30 3 30 30 0 30 1 30 55 30 52 0
55 1 55 25 0 21 5 25 30 25 27 0 30 3 30 30 0 30 1 30 55 30 54 0 55 0 55 30
0 25 4 30 25 30 20 0 25 5 25 25 0 24 3 25 60 25 l60 0 0 30 c0 25 4 30 25 30
20 0 25 5 25 25 0 24 3 25 55 25 54 0 55 0 55 30 0 27 3 30 30 30 25 0 30 4
30 25 0 24 3 25 55 25 54 0 55 0 55 30 0 27 3 30 30 30 25 0 30 4 30 25 0 24
3 25 55 25 54 0 55 0 55 30 0 25 4 30 25 30 21 0 25 5 25 30 0 30 1 30 55 30
52 0 55 1 55 25 0 21 5 25 30 25 27 0 30 3 30 30 0 30 1 30 55 30 52 0 55 1
55 25 0 21 5 25 30 25 27 0 30 3 30 30 0 30 1 30 55 30 52 0 55 1 55 25 0 20
5 25 25 25 21 0 25 5 25 30 0 30 1 30 55 30 54 0 55 0 55 30 0 27 3 30 30 30
25 0 30 4 30 25 0 24 3 25 55 25 54 0 55 0 55 30 0 27 3 30 30 30 25 0 30 4
30 25 0 24 3 25 55 25 54 0 55 0 55 30 0 25 4 30 25 30 20 0 25 5 25 25 0 24
3 25 60 25 l60 0 0 30 c0 25 4 30 25 30 21 0 25 5 25 30 0 30 1 30 55 30 52 0
55 1 55 25 0 21 5 25 30 25 27 0 30 3 30 30 0 30 1 30 55 30 52 0 55 1 55 25
0 20 5 25 25 25 21 0 25 5 25 30 l0 30 60 0 c57 0 60 1 60 25 0 20 5 25 25 25
21 0 25 5 25 30 0 30 1 30 55 30 52 0 55 1 55 25 0 21 5 25 30 25 27 0 30 3
30 30 0 30 1 30 55 30 54 0 55 0 55 30 0 27 3 30 30 30 25 0 30 4 30 25 0 24
3 25 55 25 54 0 55 0 55 30 0 25 4 30 25 30 20 0 25 5 25 25 0 24 3 25 55 25
54 0 55 0 55 30 0 27 3 30 30 30 25 0 30 4 30 25 0 24 3 25 55 25 54 0 55 0
55 30 0 30 1 30 55 30 54 0 55 0 55 30 0 30 1 30 55 30 52 0 55 1 55 25 l0 25
335 0 335 0 0 -25 c0 -25 1 -25 85 -25 l85 0 0 -30 c0 -30 1 -30 55 -30 54 0
55 0 55 -30 0 -27 3 -30 30 -30 25 0 30 -4 30 -25 0 -20 5 -25 25 -25 21 0 25
-5 25 -30 0 -30 1 -30 55 -30 52 0 55 -1 55 -25 0 -21 5 -25 30 -25 27 0 30
-3 30 -30 0 -25 4 -30 25 -30 20 0 25 -5 25 -25 0 -21 5 -25 30 -25 27 0 30
-3 30 -30 0 -27 3 -30 30 -30 27 0 30 -3 30 -30 0 -25 4 -30 25 -30 20 0 25
-5 25 -25 0 -21 5 -25 30 -25 27 0 30 -3 30 -30 0 -25 4 -30 25 -30 20 0 25
-5 25 -25 0 -21 5 -25 30 -25 27 0 30 -3 30 -30 0 -25 4 -30 25 -30 20 0 25
-5 25 -25 0 -21 5 -25 30 -25 27 0 30 -3 30 -30 0 -25 4 -30 25 -30 20 0 25
-5 25 -25 0 -21 5 -25 30 -25 27 0 30 -3 30 -30 0 -27 3 -30 30 -30 27 0 30
-3 30 -30 0 -25 4 -30 25 -30 20 0 25 -5 25 -25 0 -21 5 -25 30 -25 27 0 30
-3 30 -30 0 -25 4 -30 25 -30 20 0 25 -5 25 -25 0 -21 5 -25 30 -25 27 0 30
-3 30 -30 0 -25 4 -30 25 -30 20 0 25 -5 25 -25 0 -21 5 -25 30 -25 27 0 30
-3 30 -30 0 -27 3 -30 30 -30 27 0 30 -3 30 -30 0 -25 4 -30 25 -30 20 0 25
-5 25 -25 0 -21 5 -25 30 -25 27 0 30 -3 30 -30 0 -25 4 -30 25 -30 20 0 25
-5 25 -25 0 -21 5 -25 30 -25 27 0 30 -3 30 -30 0 -25 4 -30 25 -30 20 0 25
-5 25 -25 0 -21 5 -25 30 -25 27 0 30 -3 30 -30 0 -27 3 -30 30 -30 27 0 30
-3 30 -30 0 -25 4 -30 25 -30 20 0 25 -5 25 -25 0 -21 5 -25 30 -25 27 0 30
-3 30 -30 0 -25 4 -30 25 -30 20 0 25 -5 25 -25 0 -21 5 -25 30 -25 27 0 30
-3 30 -30 0 -25 4 -30 25 -30 20 0 25 -5 25 -25 0 -21 5 -25 30 -25 27 0 30
-3 30 -30 0 -25 4 -30 25 -30 20 0 25 -5 25 -25 0 -21 5 -25 30 -25 27 0 30
-3 30 -30 0 -27 3 -30 30 -30 27 0 30 -3 30 -30 0 -25 4 -30 25 -30 20 0 25
-5 25 -25 0 -21 5 -25 30 -25 27 0 30 -3 30 -30 0 -25 4 -30 25 -30 20 0 25
-5 25 -25 0 -21 5 -25 30 -25 27 0 30 -3 30 -30 0 -25 4 -30 25 -30 20 0 25
-5 25 -25 0 -21 5 -25 30 -25 27 0 30 -3 30 -30 0 -27 3 -30 30 -30 27 0 30
-3 30 -30 0 -25 4 -30 25 -30 20 0 25 -5 25 -25 0 -21 5 -25 30 -25 27 0 30
-3 30 -30 0 -25 4 -30 25 -30 20 0 25 -5 25 -25 0 -21 5 -25 30 -25 27 0 30
-3 30 -30 0 -25 4 -30 25 -30 20 0 25 -5 25 -25 0 -21 5 -25 30 -25 27 0 30
-3 30 -30 0 -27 3 -30 30 -30 27 0 30 -3 30 -30 0 -25 4 -30 25 -30 20 0 25
-5 25 -25 0 -21 5 -25 30 -25 27 0 30 -3 30 -30 0 -25 4 -30 25 -30 20 0 25
-5 25 -25 0 -21 5 -25 30 -25 27 0 30 -3 30 -30 0 -25 4 -30 25 -30 20 0 25
-5 25 -25 0 -21 5 -25 30 -25 27 0 30 -3 30 -30 0 -27 3 -30 30 -30 27 0 30
-3 30 -30 0 -25 4 -30 25 -30 20 0 25 -5 25 -25 0 -21 5 -25 30 -25 27 0 30
-3 30 -30 0 -25 4 -30 25 -30 20 0 25 -5 25 -25 0 -21 5 -25 30 -25 27 0 30
-3 30 -30 0 -25 4 -30 25 -30 20 0 25 -5 25 -25 0 -21 5 -25 30 -25 27 0 30
-3 30 -30 0 -25 4 -30 25 -30 20 0 25 -5 25 -25 0 -21 5 -25 30 -25 27 0 30
-3 30 -30 0 -27 3 -30 30 -30 27 0 30 -3 30 -30 0 -25 4 -30 25 -30 20 0 25
-5 25 -25 0 -21 5 -25 30 -25 27 0 30 -3 30 -30 0 -25 4 -30 25 -30 20 0 25
-5 25 -25 0 -21 5 -25 30 -25 27 0 30 -3 30 -30 0 -25 4 -30 25 -30 20 0 25
-5 25 -25 0 -21 5 -25 30 -25 27 0 30 -3 30 -30 0 -27 3 -30 30 -30 27 0 30
-3 30 -30 0 -25 4 -30 25 -30 20 0 25 -5 25 -25 0 -21 5 -25 30 -25 27 0 30
-3 30 -30 0 -25 4 -30 25 -30 20 0 25 -5 25 -25 0 -21 5 -25 30 -25 27 0 30
-3 30 -30 0 -25 4 -30 25 -30 20 0 25 -5 25 -25 0 -21 5 -25 30 -25 27 0 30
-3 30 -30 0 -27 3 -30 30 -30 27 0 30 -3 30 -30 0 -25 4 -30 25 -30 20 0 25
-5 25 -25 0 -21 5 -25 30 -25 27 0 30 -3 30 -30 0 -25 4 -30 25 -30 20 0 25
-5 25 -25 0 -21 5 -25 30 -25 27 0 30 -3 30 -30 0 -25 4 -30 25 -30 20 0 25
-5 25 -25 0 -21 5 -25 30 -25 27 0 30 -3 30 -30 0 -25 4 -30 25 -30 20 0 25
-5 25 -25 0 -21 5 -25 30 -25 27 0 30 -3 30 -30 0 -27 3 -30 30 -30 27 0 30
-3 30 -30 0 -25 4 -30 25 -30 20 0 25 -5 25 -25 0 -21 5 -25 30 -25 27 0 30
-3 30 -30 0 -25 4 -30 25 -30 20 0 25 -5 25 -25 0 -21 5 -25 30 -25 27 0 30
-3 30 -30 0 -25 4 -30 25 -30 20 0 25 -5 25 -25 0 -21 5 -25 30 -25 27 0 30
-3 30 -30 0 -27 3 -30 30 -30 27 0 30 -3 30 -30 0 -25 4 -30 25 -30 20 0 25
-5 25 -25 0 -21 5 -25 30 -25 27 0 30 -3 30 -30 0 -25 4 -30 25 -30 20 0 25
-5 25 -25 0 -21 5 -25 30 -25 27 0 30 -3 30 -30 0 -25 4 -30 25 -30 20 0 25
-5 25 -25 0 -21 5 -25 30 -25 27 0 30 -3 30 -30 0 -27 3 -30 30 -30 27 0 30
-3 30 -30 0 -25 4 -30 25 -30 20 0 25 -5 25 -25 0 -21 5 -25 30 -25 27 0 30
-3 30 -30 0 -25 4 -30 25 -30 20 0 25 -5 25 -25 0 -21 5 -25 30 -25 30 0 30
-1 30 -55 0 -52 1 -55 25 -55 21 0 25 -5 25 -30 0 -27 3 -30 30 -30 30 0 30
-1 30 -55 0 -52 1 -55 25 -55 24 0 25 -3 25 -55 0 -54 0 -55 30 -55 l30 0 0
-225 0 -225 -30 0 -30 0 0 -80 c0 -79 0 -80 -25 -80 -24 0 -25 -3 -25 -60 l0
-60 -30 0 c-25 0 -30 -4 -30 -25 0 -20 -5 -25 -25 -25 -21 0 -25 -5 -25 -30 0
-27 -3 -30 -30 -30 -25 0 -30 -4 -30 -25 0 -20 -5 -25 -25 -25 -21 0 -25 -5
-25 -30 0 -27 -3 -30 -30 -30 -25 0 -30 -4 -30 -25 0 -24 -3 -25 -55 -25 -54
0 -55 0 -55 -30 l0 -30 -140 0 -140 0 0 -25 c0 -25 -1 -25 -85 -25 -84 0 -85
0 -85 25 l0 25 -110 0 -110 0 0 30 c0 30 -1 30 -55 30 -52 0 -55 1 -55 25 0
21 -5 25 -30 25 -27 0 -30 3 -30 30 0 30 -1 30 -55 30 -52 0 -55 1 -55 25 0
20 -5 25 -25 25 -21 0 -25 5 -25 30 0 27 -3 30 -30 30 -25 0 -30 4 -30 25 0
20 -5 25 -25 25 -21 0 -25 5 -25 30 0 27 -3 30 -30 30 -27 0 -30 3 -30 30 0
25 -4 30 -25 30 -20 0 -25 5 -25 25 0 21 -5 25 -30 25 -27 0 -30 3 -30 30 0
27 -3 30 -30 30 -25 0 -30 4 -30 25 0 20 -5 25 -25 25 -21 0 -25 5 -25 30 0
27 -3 30 -30 30 -25 0 -30 4 -30 25 0 20 -5 25 -25 25 -21 0 -25 5 -25 30 0
27 -3 30 -30 30 -27 0 -30 3 -30 30 0 25 -4 30 -25 30 -20 0 -25 5 -25 25 0
21 -5 25 -30 25 -27 0 -30 3 -30 30 0 27 -3 30 -30 30 -25 0 -30 4 -30 25 0
20 -5 25 -25 25 -21 0 -25 5 -25 30 0 27 -3 30 -30 30 -25 0 -30 4 -30 25 0
20 -5 25 -25 25 -21 0 -25 5 -25 30 0 27 -3 30 -30 30 -27 0 -30 3 -30 30 0
25 -4 30 -25 30 -20 0 -25 5 -25 25 0 21 -5 25 -30 25 -27 0 -30 3 -30 30 0
27 -3 30 -30 30 -25 0 -30 4 -30 25 0 20 -5 25 -25 25 -21 0 -25 5 -25 30 0
27 -3 30 -30 30 -25 0 -30 4 -30 25 0 20 -5 25 -25 25 -21 0 -25 5 -25 30 0
27 -3 30 -30 30 -25 0 -30 4 -30 25 0 20 -5 25 -25 25 -21 0 -25 5 -25 30 0
27 -3 30 -30 30 -27 0 -30 3 -30 30 0 25 -4 30 -25 30 -20 0 -25 5 -25 25 0
21 -5 25 -30 25 -27 0 -30 3 -30 30 0 27 -3 30 -30 30 -25 0 -30 4 -30 25 0
20 -5 25 -25 25 -21 0 -25 5 -25 30 0 27 -3 30 -30 30 -25 0 -30 4 -30 25 0
20 -5 25 -25 25 -21 0 -25 5 -25 30 0 27 -3 30 -30 30 -27 0 -30 3 -30 30 0
25 -4 30 -25 30 -20 0 -25 5 -25 25 0 21 -5 25 -30 25 -27 0 -30 3 -30 30 0
27 -3 30 -30 30 -25 0 -30 4 -30 25 0 20 -5 25 -25 25 -21 0 -25 5 -25 30 0
27 -3 30 -30 30 -25 0 -30 4 -30 25 0 20 -5 25 -25 25 -21 0 -25 5 -25 30 0
27 -3 30 -30 30 -27 0 -30 3 -30 30 0 25 -4 30 -25 30 -20 0 -25 5 -25 25 0
21 -5 25 -30 25 -27 0 -30 3 -30 30 0 27 -3 30 -30 30 -25 0 -30 4 -30 25 0
20 -5 25 -25 25 -21 0 -25 5 -25 30 0 27 -3 30 -30 30 -25 0 -30 4 -30 25 0
20 -5 25 -25 25 -21 0 -25 5 -25 30 0 27 -3 30 -30 30 -25 0 -30 4 -30 25 0
20 -5 25 -25 25 -21 0 -25 5 -25 30 0 27 -3 30 -30 30 -27 0 -30 3 -30 30 0
27 -3 30 -30 30 -25 0 -30 4 -30 25 0 20 -5 25 -25 25 -21 0 -25 5 -25 30 0
27 -3 30 -30 30 -25 0 -30 4 -30 25 0 20 -5 25 -25 25 -21 0 -25 5 -25 30 0
27 -3 30 -30 30 -25 0 -30 4 -30 25 0 20 -5 25 -25 25 -21 0 -25 5 -25 30 0
27 -3 30 -30 30 -27 0 -30 3 -30 30 0 25 -4 30 -25 30 -20 0 -25 5 -25 25 0
21 -5 25 -30 25 -27 0 -30 3 -30 30 0 27 -3 30 -30 30 -25 0 -30 4 -30 25 0
20 -5 25 -25 25 -21 0 -25 5 -25 30 0 27 -3 30 -30 30 -25 0 -30 4 -30 25 0
20 -5 25 -25 25 -21 0 -25 5 -25 30 0 27 -3 30 -30 30 -27 0 -30 3 -30 30 0
25 -4 30 -25 30 -20 0 -25 5 -25 25 0 21 -5 25 -30 25 -27 0 -30 3 -30 30 0
27 -3 30 -30 30 -25 0 -30 4 -30 25 0 20 -5 25 -25 25 -21 0 -25 5 -25 30 0
27 -3 30 -30 30 -25 0 -30 4 -30 25 0 20 -5 25 -25 25 -21 0 -25 5 -25 30 0
27 -3 30 -30 30 -25 0 -30 4 -30 25 0 20 -5 25 -25 25 -21 0 -25 5 -25 30 0
27 -3 30 -30 30 -27 0 -30 3 -30 30 0 27 -3 30 -30 30 -25 0 -30 4 -30 25 0
20 -5 25 -25 25 -21 0 -25 5 -25 30 0 27 -3 30 -30 30 -25 0 -30 4 -30 25 0
20 -5 25 -25 25 -21 0 -25 5 -25 30 0 27 -3 30 -30 30 -25 0 -30 4 -30 25 0
20 -5 25 -25 25 -21 0 -25 5 -25 30 0 27 -3 30 -30 30 -27 0 -30 3 -30 30 0
25 -4 30 -25 30 -20 0 -25 5 -25 25 0 21 -5 25 -30 25 -27 0 -30 3 -30 30 0
27 -3 30 -30 30 -25 0 -30 4 -30 25 0 20 -5 25 -25 25 -21 0 -25 5 -25 30 0
30 -1 30 -55 30 -54 0 -55 0 -55 -30 0 -27 -3 -30 -30 -30 -25 0 -30 -4 -30
-25 0 -20 -5 -25 -25 -25 -21 0 -25 -5 -25 -30 0 -27 -3 -30 -30 -30 -25 0
-30 -4 -30 -25 0 -21 -5 -25 -30 -25 -27 0 -30 -3 -30 -30 0 -25 -4 -30 -25
-30 -21 0 -25 -5 -25 -30 0 -27 -3 -30 -30 -30 -25 0 -30 -4 -30 -25 0 -20 -5
-25 -25 -25 -21 0 -25 -5 -25 -30 0 -27 -3 -30 -30 -30 -25 0 -30 -4 -30 -25
0 -20 -5 -25 -25 -25 -21 0 -25 -5 -25 -30 0 -27 -3 -30 -30 -30 -25 0 -30 -4
-30 -25 0 -21 -5 -25 -30 -25 -27 0 -30 -3 -30 -30 0 -25 -4 -30 -25 -30 -21
0 -25 -5 -25 -30 0 -27 -3 -30 -30 -30 -25 0 -30 -4 -30 -25 0 -20 -5 -25 -25
-25 -21 0 -25 -5 -25 -30 0 -27 -3 -30 -30 -30 -25 0 -30 -4 -30 -25 0 -20 -5
-25 -25 -25 -21 0 -25 -5 -25 -30 0 -27 -3 -30 -30 -30 -25 0 -30 -4 -30 -25
0 -20 -5 -25 -25 -25 -21 0 -25 -5 -25 -30 0 -27 -3 -30 -30 -30 -30 0 -30 -1
-30 -55 0 -54 0 -55 30 -55 27 0 30 -3 30 -30 0 -25 4 -30 25 -30 20 0 25 -5
25 -25 0 -21 5 -25 30 -25 27 0 30 -3 30 -30 0 -25 4 -30 25 -30 20 0 25 -5
25 -25 0 -21 5 -25 30 -25 27 0 30 -3 30 -30 0 -25 4 -30 25 -30 20 0 25 -5
25 -25 0 -21 5 -25 30 -25 27 0 30 -3 30 -30 0 -25 4 -30 25 -30 21 0 25 -5
25 -30 0 -27 3 -30 30 -30 25 0 30 -4 30 -25 0 -21 5 -25 30 -25 27 0 30 -3
30 -30 0 -25 4 -30 25 -30 20 0 25 -5 25 -25 0 -21 5 -25 30 -25 27 0 30 -3
30 -30 0 -25 4 -30 25 -30 20 0 25 -5 25 -25 0 -21 5 -25 30 -25 27 0 30 -3
30 -30 0 -25 4 -30 25 -30 21 0 25 -5 25 -30 0 -27 3 -30 30 -30 25 0 30 -4
30 -25 0 -21 5 -25 30 -25 27 0 30 -3 30 -30 0 -25 4 -30 25 -30 20 0 25 -5
25 -25 0 -21 5 -25 30 -25 27 0 30 -3 30 -30 0 -25 4 -30 25 -30 20 0 25 -5
25 -25 0 -21 5 -25 30 -25 27 0 30 -3 30 -30 0 -25 4 -30 25 -30 20 0 25 -5
25 -25 0 -21 5 -25 30 -25 27 0 30 -3 30 -30 0 -27 3 -30 30 -30 27 0 30 -3
30 -30 0 -25 4 -30 25 -30 20 0 25 -5 25 -25 0 -21 5 -25 30 -25 27 0 30 -3
30 -30 0 -25 4 -30 25 -30 20 0 25 -5 25 -25 0 -21 5 -25 30 -25 27 0 30 -3
30 -30 0 -25 4 -30 25 -30 20 0 25 -5 25 -25 0 -21 5 -25 30 -25 27 0 30 -3
30 -30 0 -25 4 -30 25 -30 21 0 25 -5 25 -30 0 -27 3 -30 30 -30 25 0 30 -4
30 -25 0 -21 5 -25 30 -25 27 0 30 -3 30 -30 0 -25 4 -30 25 -30 20 0 25 -5
25 -25 0 -21 5 -25 30 -25 27 0 30 -3 30 -30 0 -25 4 -30 25 -30 20 0 25 -5
25 -25 0 -21 5 -25 30 -25 27 0 30 -3 30 -30 0 -25 4 -30 25 -30 21 0 25 -5
25 -30 0 -27 3 -30 30 -30 25 0 30 -4 30 -25 0 -21 5 -25 30 -25 27 0 30 -3
30 -30 0 -25 4 -30 25 -30 20 0 25 -5 25 -25 0 -21 5 -25 30 -25 27 0 30 -3
30 -30 0 -25 4 -30 25 -30 20 0 25 -5 25 -25 0 -21 5 -25 30 -25 27 0 30 -3
30 -30 0 -25 4 -30 25 -30 20 0 25 -5 25 -25 0 -21 5 -25 30 -25 27 0 30 -3
30 -30 0 -27 3 -30 30 -30 27 0 30 -3 30 -30 0 -25 4 -30 25 -30 20 0 25 -5
25 -25 0 -21 5 -25 30 -25 27 0 30 -3 30 -30 0 -25 4 -30 25 -30 20 0 25 -5
25 -25 0 -21 5 -25 30 -25 27 0 30 -3 30 -30 0 -25 4 -30 25 -30 20 0 25 -5
25 -25 0 -21 5 -25 30 -25 27 0 30 -3 30 -30 0 -25 4 -30 25 -30 21 0 25 -5
25 -30 0 -27 3 -30 30 -30 25 0 30 -4 30 -25 0 -21 5 -25 30 -25 27 0 30 -3
30 -30 0 -25 4 -30 25 -30 20 0 25 -5 25 -25 0 -21 5 -25 30 -25 27 0 30 -3
30 -30 0 -25 4 -30 25 -30 20 0 25 -5 25 -25 0 -21 5 -25 30 -25 27 0 30 -3
30 -30 0 -25 4 -30 25 -30 21 0 25 -5 25 -30 0 -27 3 -30 30 -30 25 0 30 -4
30 -25 0 -21 5 -25 30 -25 27 0 30 -3 30 -30 0 -25 4 -30 25 -30 20 0 25 -5
25 -25 0 -21 5 -25 30 -25 27 0 30 -3 30 -30 0 -25 4 -30 25 -30 20 0 25 -5
25 -25 0 -21 5 -25 30 -25 27 0 30 -3 30 -30 0 -25 4 -30 25 -30 20 0 25 -5
25 -25 0 -21 5 -25 30 -25 27 0 30 -3 30 -30 0 -27 3 -30 30 -30 27 0 30 -3
30 -30 0 -25 4 -30 25 -30 20 0 25 -5 25 -25 0 -21 5 -25 30 -25 27 0 30 -3
30 -30 0 -25 4 -30 25 -30 20 0 25 -5 25 -25 0 -21 5 -25 30 -25 27 0 30 -3
30 -30 0 -25 4 -30 25 -30 20 0 25 -5 25 -25 0 -21 5 -25 30 -25 27 0 30 -3
30 -30 0 -27 3 -30 30 -30 27 0 30 -3 30 -30 0 -25 4 -30 25 -30 20 0 25 -5
25 -25 0 -21 5 -25 30 -25 27 0 30 -3 30 -30 0 -25 4 -30 25 -30 20 0 25 -5
25 -25 0 -21 5 -25 30 -25 27 0 30 -3 30 -30 0 -25 4 -30 25 -30 20 0 25 -5
25 -25 0 -21 5 -25 30 -25 27 0 30 -3 30 -30 0 -25 4 -30 25 -30 21 0 25 -5
25 -30 0 -27 3 -30 30 -30 30 0 30 -1 30 -55 0 -54 0 -55 30 -55 25 0 30 -4
30 -25 0 -20 5 -25 25 -25 24 0 25 -3 25 -55 0 -54 0 -55 30 -55 l30 0 0 -85
c0 -84 0 -85 25 -85 l25 0 0 -140 0 -140 -25 0 -25 0 0 -110 0 -110 -30 0
c-30 0 -30 -1 -30 -55 0 -52 -1 -55 -25 -55 -21 0 -25 -5 -25 -30 0 -27 -3
-30 -30 -30 -25 0 -30 -4 -30 -25 0 -21 -5 -25 -30 -25 -27 0 -30 -3 -30 -30
0 -25 -4 -30 -25 -30 -21 0 -25 -5 -25 -30 0 -27 -3 -30 -30 -30 -25 0 -30 -4
-30 -25 0 -24 -3 -25 -55 -25 -54 0 -55 0 -55 -30 l0 -30 -80 0 c-79 0 -80 0
-80 -25 l0 -25 -195 0 -195 0 0 25 c0 25 -1 25 -85 25 l-85 0 0 30 c0 30 -1
30 -55 30 -52 0 -55 1 -55 25 0 21 -5 25 -30 25 -27 0 -30 3 -30 30 0 25 -4
30 -25 30 -21 0 -25 5 -25 30 0 27 -3 30 -30 30 -25 0 -30 4 -30 25 0 21 -5
25 -30 25 -27 0 -30 3 -30 30 0 25 -4 30 -25 30 -20 0 -25 5 -25 25 0 21 -5
25 -30 25 -27 0 -30 3 -30 30 0 25 -4 30 -25 30 -20 0 -25 5 -25 25 0 21 -5
25 -30 25 -27 0 -30 3 -30 30 0 25 -4 30 -25 30 -21 0 -25 5 -25 30 0 27 -3
30 -30 30 -25 0 -30 4 -30 25 0 21 -5 25 -30 25 -27 0 -30 3 -30 30 0 25 -4
30 -25 30 -20 0 -25 5 -25 25 0 21 -5 25 -30 25 -27 0 -30 3 -30 30 0 25 -4
30 -25 30 -20 0 -25 5 -25 25 0 21 -5 25 -30 25 -27 0 -30 3 -30 30 0 25 -4
30 -25 30 -20 0 -25 5 -25 25 0 21 -5 25 -30 25 -27 0 -30 3 -30 30 0 25 -4
30 -25 30 -21 0 -25 5 -25 30 0 27 -3 30 -30 30 -25 0 -30 4 -30 25 0 21 -5
25 -30 25 -27 0 -30 3 -30 30 0 25 -4 30 -25 30 -20 0 -25 5 -25 25 0 21 -5
25 -30 25 -27 0 -30 3 -30 30 0 25 -4 30 -25 30 -20 0 -25 5 -25 25 0 21 -5
25 -30 25 -27 0 -30 3 -30 30 0 25 -4 30 -25 30 -21 0 -25 5 -25 30 0 27 -3
30 -30 30 -25 0 -30 4 -30 25 0 21 -5 25 -30 25 -27 0 -30 3 -30 30 0 25 -4
30 -25 30 -20 0 -25 5 -25 25 0 21 -5 25 -30 25 -27 0 -30 3 -30 30 0 25 -4
30 -25 30 -20 0 -25 5 -25 25 0 21 -5 25 -30 25 -27 0 -30 3 -30 30 0 25 -4
30 -25 30 -21 0 -25 5 -25 30 0 27 -3 30 -30 30 -25 0 -30 4 -30 25 0 21 -5
25 -30 25 -27 0 -30 3 -30 30 0 25 -4 30 -25 30 -20 0 -25 5 -25 25 0 21 -5
25 -30 25 -27 0 -30 3 -30 30 0 25 -4 30 -25 30 -20 0 -25 5 -25 25 0 21 -5
25 -30 25 -27 0 -30 3 -30 30 0 25 -4 30 -25 30 -21 0 -25 5 -25 30 0 27 -3
30 -30 30 -25 0 -30 4 -30 25 0 20 -5 25 -25 25 -21 0 -25 5 -25 30 0 27 -3
30 -30 30 -25 0 -30 4 -30 25 0 21 -5 25 -30 25 -27 0 -30 3 -30 30 0 25 -4
30 -25 30 -20 0 -25 5 -25 25 0 21 -5 25 -30 25 -27 0 -30 3 -30 30 0 25 -4
30 -25 30 -20 0 -25 5 -25 25 0 21 -5 25 -30 25 -27 0 -30 3 -30 30 0 25 -4
30 -25 30 -21 0 -25 5 -25 30 0 27 -3 30 -30 30 -25 0 -30 4 -30 25 0 21 -5
25 -30 25 -27 0 -30 3 -30 30 0 25 -4 30 -25 30 -20 0 -25 5 -25 25 0 21 -5
25 -30 25 -27 0 -30 3 -30 30 0 25 -4 30 -25 30 -20 0 -25 5 -25 25 0 21 -5
25 -30 25 -27 0 -30 3 -30 30 0 25 -4 30 -25 30 -21 0 -25 5 -25 30 0 27 -3
30 -30 30 -25 0 -30 4 -30 25 0 21 -5 25 -30 25 -27 0 -30 3 -30 30 0 25 -4
30 -25 30 -20 0 -25 5 -25 25 0 21 -5 25 -30 25 -27 0 -30 3 -30 30 0 25 -4
30 -25 30 -20 0 -25 5 -25 25 0 21 -5 25 -30 25 -27 0 -30 3 -30 30 0 25 -4
30 -25 30 -21 0 -25 5 -25 30 0 27 -3 30 -30 30 -25 0 -30 4 -30 25 0 20 -5
25 -25 25 -21 0 -25 5 -25 30 0 27 -3 30 -30 30 -25 0 -30 4 -30 25 0 21 -5
25 -30 25 -27 0 -30 3 -30 30 0 25 -4 30 -25 30 -20 0 -25 5 -25 25 0 21 -5
25 -30 25 -27 0 -30 3 -30 30 0 25 -4 30 -25 30 -20 0 -25 5 -25 25 0 21 -5
25 -30 25 -27 0 -30 3 -30 30 0 25 -4 30 -25 30 -21 0 -25 5 -25 30 0 27 -3
30 -30 30 -25 0 -30 4 -30 25 0 21 -5 25 -30 25 -27 0 -30 3 -30 30 0 25 -4
30 -25 30 -20 0 -25 5 -25 25 0 21 -5 25 -30 25 -27 0 -30 3 -30 30 0 25 -4
30 -25 30 -20 0 -25 5 -25 25 0 21 -5 25 -30 25 -27 0 -30 3 -30 30 0 25 -4
30 -25 30 -21 0 -25 5 -25 30 0 27 -3 30 -30 30 -25 0 -30 4 -30 25 0 21 -5
25 -30 25 -27 0 -30 3 -30 30 0 25 -4 30 -25 30 -20 0 -25 5 -25 25 0 21 -5
25 -30 25 -27 0 -30 3 -30 30 0 25 -4 30 -25 30 -20 0 -25 5 -25 25 0 21 -5
25 -30 25 -27 0 -30 3 -30 30 0 25 -4 30 -25 30 -21 0 -25 5 -25 30 0 27 -3
30 -30 30 -25 0 -30 4 -30 25 0 24 -3 25 -55 25 -52 0 -55 -1 -55 -25 0 -21
-5 -25 -30 -25 -27 0 -30 -3 -30 -30 0 -25 -4 -30 -25 -30 -21 0 -25 -5 -25
-30 0 -27 -3 -30 -30 -30 -25 0 -30 -4 -30 -25 0 -20 -5 -25 -25 -25 -21 0
-25 -5 -25 -30 0 -27 -3 -30 -30 -30 -25 0 -30 -4 -30 -25 0 -20 -5 -25 -25
-25 -21 0 -25 -5 -25 -30 0 -27 -3 -30 -30 -30 -25 0 -30 -4 -30 -25 0 -21 -5
-25 -30 -25 -27 0 -30 -3 -30 -30 0 -25 -4 -30 -25 -30 -21 0 -25 -5 -25 -30
0 -27 -3 -30 -30 -30 -25 0 -30 -4 -30 -25 0 -20 -5 -25 -25 -25 -21 0 -25 -5
-25 -30 0 -27 -3 -30 -30 -30 -25 0 -30 -4 -30 -25 0 -20 -5 -25 -25 -25 -21
0 -25 -5 -25 -30 0 -27 -3 -30 -30 -30 -25 0 -30 -4 -30 -25 0 -21 -5 -25 -30
-25 -27 0 -30 -3 -30 -30 0 -25 -4 -30 -25 -30 -21 0 -25 -5 -25 -30 0 -27 -3
-30 -30 -30 -25 0 -30 -4 -30 -25 0 -20 -5 -25 -25 -25 -21 0 -25 -5 -25 -30
0 -27 -3 -30 -30 -30 -25 0 -30 -4 -30 -25 0 -20 -5 -25 -25 -25 -21 0 -25 -5
-25 -30 0 -25 4 -30 25 -30 20 0 25 -5 25 -25 0 -21 5 -25 30 -25 27 0 30 -3
30 -30 0 -25 4 -30 25 -30 20 0 25 -5 25 -25 0 -21 5 -25 30 -25 27 0 30 -3
30 -30 0 -25 4 -30 25 -30 21 0 25 -5 25 -30 0 -27 3 -30 30 -30 25 0 30 -4
30 -25 0 -21 5 -25 30 -25 27 0 30 -3 30 -30 0 -25 4 -30 25 -30 20 0 25 -5
25 -25 0 -21 5 -25 30 -25 27 0 30 -3 30 -30 0 -25 4 -30 25 -30 20 0 25 -5
25 -25 0 -21 5 -25 30 -25 27 0 30 -3 30 -30 0 -25 4 -30 25 -30 21 0 25 -5
25 -30 0 -27 3 -30 30 -30 25 0 30 -4 30 -25 0 -21 5 -25 30 -25 27 0 30 -3
30 -30 0 -25 4 -30 25 -30 20 0 25 -5 25 -25 0 -21 5 -25 30 -25 27 0 30 -3
30 -30 0 -25 4 -30 25 -30 20 0 25 -5 25 -25 0 -21 5 -25 30 -25 27 0 30 -3
30 -30 0 -25 4 -30 25 -30 21 0 25 -5 25 -30 0 -27 3 -30 30 -30 25 0 30 -4
30 -25 0 -20 5 -25 25 -25 21 0 25 -5 25 -30 0 -27 3 -30 30 -30 25 0 30 -4
30 -25 0 -21 5 -25 30 -25 27 0 30 -3 30 -30 0 -25 4 -30 25 -30 20 0 25 -5
25 -25 0 -21 5 -25 30 -25 27 0 30 -3 30 -30 0 -25 4 -30 25 -30 20 0 25 -5
25 -25 0 -21 5 -25 30 -25 27 0 30 -3 30 -30 0 -25 4 -30 25 -30 21 0 25 -5
25 -30 0 -27 3 -30 30 -30 25 0 30 -4 30 -25 0 -21 5 -25 30 -25 27 0 30 -3
30 -30 0 -25 4 -30 25 -30 20 0 25 -5 25 -25 0 -21 5 -25 30 -25 27 0 30 -3
30 -30 0 -25 4 -30 25 -30 20 0 25 -5 25 -25 0 -21 5 -25 30 -25 27 0 30 -3
30 -30 0 -25 4 -30 25 -30 21 0 25 -5 25 -30 0 -27 3 -30 30 -30 25 0 30 -4
30 -25 0 -21 5 -25 30 -25 27 0 30 -3 30 -30 0 -25 4 -30 25 -30 20 0 25 -5
25 -25 0 -21 5 -25 30 -25 27 0 30 -3 30 -30 0 -25 4 -30 25 -30 20 0 25 -5
25 -25 0 -21 5 -25 30 -25 27 0 30 -3 30 -30 0 -25 4 -30 25 -30 21 0 25 -5
25 -30 0 -27 3 -30 30 -30 25 0 30 -4 30 -25 0 -21 5 -25 30 -25 27 0 30 -3
30 -30 0 -25 4 -30 25 -30 20 0 25 -5 25 -25 0 -21 5 -25 30 -25 27 0 30 -3
30 -30 0 -25 4 -30 25 -30 20 0 25 -5 25 -25 0 -21 5 -25 30 -25 27 0 30 -3
30 -30 0 -25 4 -30 25 -30 21 0 25 -5 25 -30 0 -27 3 -30 30 -30 25 0 30 -4
30 -25 0 -20 5 -25 25 -25 21 0 25 -5 25 -30 0 -27 3 -30 30 -30 25 0 30 -4
30 -25 0 -21 5 -25 30 -25 27 0 30 -3 30 -30 0 -25 4 -30 25 -30 20 0 25 -5
25 -25 0 -21 5 -25 30 -25 27 0 30 -3 30 -30 0 -25 4 -30 25 -30 20 0 25 -5
25 -25 0 -21 5 -25 30 -25 27 0 30 -3 30 -30 0 -25 4 -30 25 -30 21 0 25 -5
25 -30 0 -27 3 -30 30 -30 25 0 30 -4 30 -25 0 -21 5 -25 30 -25 27 0 30 -3
30 -30 0 -25 4 -30 25 -30 20 0 25 -5 25 -25 0 -21 5 -25 30 -25 27 0 30 -3
30 -30 0 -25 4 -30 25 -30 20 0 25 -5 25 -25 0 -21 5 -25 30 -25 27 0 30 -3
30 -30 0 -25 4 -30 25 -30 21 0 25 -5 25 -30 0 -27 3 -30 30 -30 25 0 30 -4
30 -25 0 -21 5 -25 30 -25 27 0 30 -3 30 -30 0 -25 4 -30 25 -30 20 0 25 -5
25 -25 0 -21 5 -25 30 -25 27 0 30 -3 30 -30 0 -25 4 -30 25 -30 20 0 25 -5
25 -25 0 -21 5 -25 30 -25 27 0 30 -3 30 -30 0 -25 4 -30 25 -30 21 0 25 -5
25 -30 0 -27 3 -30 30 -30 25 0 30 -4 30 -25 0 -20 5 -25 25 -25 21 0 25 -5
25 -30 0 -27 3 -30 30 -30 25 0 30 -4 30 -25 0 -21 5 -25 30 -25 27 0 30 -3
30 -30 0 -25 4 -30 25 -30 20 0 25 -5 25 -25 0 -21 5 -25 30 -25 27 0 30 -3
30 -30 0 -25 4 -30 25 -30 20 0 25 -5 25 -25 0 -21 5 -25 30 -25 27 0 30 -3
30 -30 0 -25 4 -30 25 -30 21 0 25 -5 25 -30 0 -27 3 -30 30 -30 25 0 30 -4
30 -25 0 -21 5 -25 30 -25 27 0 30 -3 30 -30 0 -25 4 -30 25 -30 20 0 25 -5
25 -25 0 -21 5 -25 30 -25 27 0 30 -3 30 -30 0 -25 4 -30 25 -30 20 0 25 -5
25 -25 0 -21 5 -25 30 -25 l30 0 0 -60 c0 -57 1 -60 25 -60 25 0 25 -1 25 -80
l0 -80 30 0 30 0 0 -250 0 -250 -30 0 c-30 0 -30 -1 -30 -55 0 -52 -1 -55 -25
-55 -24 0 -25 -3 -25 -60 l0 -60 -30 0 c-25 0 -30 -4 -30 -25 0 -20 -5 -25
-25 -25 -21 0 -25 -5 -25 -30 0 -27 -3 -30 -30 -30 -25 0 -30 -4 -30 -25 0
-20 -5 -25 -25 -25 -21 0 -25 -5 -25 -30 l0 -30 -60 0 c-57 0 -60 -1 -60 -25
0 -24 -3 -25 -55 -25 -54 0 -55 0 -55 -30 l0 -30 -275 0 -275 0 0 30 c0 30 -1
30 -55 30 -52 0 -55 1 -55 25 0 24 -3 25 -60 25 l-60 0 0 30 c0 25 -4 30 -25
30 -20 0 -25 5 -25 25 0 21 -5 25 -30 25 -27 0 -30 3 -30 30 0 30 -1 30 -55
30 -52 0 -55 1 -55 25 0 20 -5 25 -25 25 -21 0 -25 5 -25 30 0 27 -3 30 -30
30 -27 0 -30 3 -30 30 0 27 -3 30 -30 30 -25 0 -30 4 -30 25 0 24 -3 25 -55
25 -54 0 -55 0 -55 30 0 25 -4 30 -25 30 -20 0 -25 5 -25 25 0 24 -3 25 -55
25 -54 0 -55 0 -55 30 l0 30 -60 0 c-57 0 -60 1 -60 25 0 24 -3 25 -55 25 -54
0 -55 0 -55 30 l0 30 -80 0 c-79 0 -80 0 -80 25 0 25 -1 25 -85 25 l-85 0 0
30 0 30 -165 0 -165 0 0 30 0 30 -85 0 -85 0 0 55 c0 54 0 55 -30 55 l-30 0 0
195 0 195 -25 0 c-25 0 -25 1 -25 80 l0 80 -30 0 -30 0 0 85 c0 84 0 85 -25
85 -24 0 -25 3 -25 55 0 54 0 55 -30 55 -30 0 -30 1 -30 55 0 54 0 55 -30 55
-27 0 -30 3 -30 30 0 25 -4 30 -25 30 -24 0 -25 3 -25 55 0 54 0 55 -30 55
-30 0 -30 1 -30 55 0 52 -1 55 -25 55 -21 0 -25 5 -25 30 0 27 -3 30 -30 30
-25 0 -30 4 -30 25 0 20 -5 25 -25 25 -21 0 -25 5 -25 30 0 27 -3 30 -30 30
-30 0 -30 1 -30 55 0 54 0 55 -30 55 -27 0 -30 3 -30 30 0 30 -1 30 -55 30
-52 0 -55 1 -55 25 0 20 -5 25 -25 25 -21 0 -25 5 -25 30 0 27 -3 30 -30 30
-25 0 -30 4 -30 25 0 20 -5 25 -25 25 -21 0 -25 5 -25 30 0 27 -3 30 -30 30
-25 0 -30 4 -30 25 0 24 -3 25 -55 25 -54 0 -55 0 -55 30 0 30 -1 30 -55 30
-54 0 -55 0 -55 30 0 30 -1 30 -55 30 -52 0 -55 1 -55 25 0 21 -5 25 -30 25
-27 0 -30 3 -30 30 l0 30 -85 0 c-84 0 -85 0 -85 25 0 25 -1 25 -80 25 l-80 0
0 30 0 30 -115 0 -115 0 0 25 0 25 -165 0 -165 0 0 30 c0 25 -4 30 -25 30
l-25 0 0 140 0 140 -30 0 -30 0 0 140 0 140 -30 0 -30 0 0 80 c0 79 0 80 -25
80 -24 0 -25 3 -25 55 0 54 0 55 -30 55 l-30 0 0 60 c0 57 -1 60 -25 60 -24 0
-25 3 -25 55 0 54 0 55 -30 55 -30 0 -30 1 -30 55 0 52 -1 55 -25 55 -24 0
-25 3 -25 55 0 54 0 55 -30 55 -27 0 -30 3 -30 30 0 27 -3 30 -30 30 -25 0
-30 4 -30 25 0 20 -5 25 -25 25 -21 0 -25 5 -25 30 0 27 -3 30 -30 30 -25 0
-30 4 -30 25 0 20 -5 25 -25 25 -24 0 -25 3 -25 55 0 54 0 55 -30 55 -27 0
-30 3 -30 30 0 30 -1 30 -55 30 -52 0 -55 1 -55 25 0 21 -5 25 -30 25 -27 0
-30 3 -30 30 0 25 -4 30 -25 30 -21 0 -25 5 -25 30 0 27 -3 30 -30 30 -25 0
-30 4 -30 25 0 24 -3 25 -55 25 -54 0 -55 0 -55 30 0 25 -4 30 -25 30 -20 0
-25 5 -25 25 0 24 -3 25 -55 25 -54 0 -55 0 -55 30 l0 30 -60 0 c-57 0 -60 1
-60 25 0 24 -3 25 -55 25 -54 0 -55 0 -55 30 l0 30 -80 0 -80 0 0 30 0 30 -85
0 c-84 0 -85 0 -85 25 l0 25 -195 0 -195 0 0 30 c0 30 -1 30 -55 30 l-55 0 0
80 0 80 -30 0 -30 0 0 170 0 170 -25 0 c-25 0 -25 1 -25 80 l0 80 -30 0 -30 0
0 85 c0 84 0 85 -25 85 -24 0 -25 3 -25 55 0 54 0 55 -30 55 -30 0 -30 1 -30
55 0 54 0 55 -30 55 l-30 0 0 60 c0 57 -1 60 -25 60 -20 0 -25 5 -25 25 0 21
-5 25 -30 25 -30 0 -30 1 -30 55 0 52 -1 55 -25 55 -21 0 -25 5 -25 30 0 27
-3 30 -30 30 -25 0 -30 4 -30 25 0 20 -5 25 -25 25 -21 0 -25 5 -25 30 0 27
-3 30 -30 30 -30 0 -30 1 -30 55 0 54 0 55 -30 55 -27 0 -30 3 -30 30 0 30 -1
30 -55 30 -52 0 -55 1 -55 25 0 20 -5 25 -25 25 -21 0 -25 5 -25 30 0 27 -3
30 -30 30 -25 0 -30 4 -30 25 0 20 -5 25 -25 25 -21 0 -25 5 -25 30 0 27 -3
30 -30 30 -25 0 -30 4 -30 25 0 24 -3 25 -55 25 -54 0 -55 0 -55 30 0 30 -1
30 -55 30 -54 0 -55 0 -55 30 0 30 -1 30 -55 30 -52 0 -55 1 -55 25 0 24 -3
25 -60 25 l-60 0 0 30 c0 30 -1 30 -55 30 -52 0 -55 1 -55 25 l0 25 -110 0
-110 0 0 30 0 30 -85 0 c-84 0 -85 0 -85 25 l0 25 -470 0 -470 0 0 -25 0 -25
-110 0 -110 0 0 -30 0 -30 -85 0 c-84 0 -85 0 -85 -25 0 -25 -1 -25 -85 -25
l-85 0 0 -30 c0 -30 -1 -30 -55 -30 -52 0 -55 -1 -55 -25 0 -21 -5 -25 -30
-25 -27 0 -30 -3 -30 -30 0 -30 -1 -30 -55 -30 -54 0 -55 0 -55 -30 0 -30 -1
-30 -55 -30 -52 0 -55 -1 -55 -25 0 -20 -5 -25 -25 -25 -21 0 -25 -5 -25 -30
0 -27 -3 -30 -30 -30 -25 0 -30 -4 -30 -25 0 -24 -3 -25 -55 -25 -54 0 -55 0
-55 -30 0 -27 -3 -30 -30 -30 -25 0 -30 -4 -30 -25 0 -20 -5 -25 -25 -25 -21
0 -25 -5 -25 -30 0 -27 -3 -30 -30 -30 -25 0 -30 -4 -30 -25 0 -20 -5 -25 -25
-25 -21 0 -25 -5 -25 -30 0 -27 -3 -30 -30 -30 -27 0 -30 -3 -30 -30 0 -25 -4
-30 -25 -30 -20 0 -25 -5 -25 -25 0 -21 -5 -25 -30 -25 -27 0 -30 -3 -30 -30
0 -27 -3 -30 -30 -30 -25 0 -30 -4 -30 -25 0 -20 -5 -25 -25 -25 -21 0 -25 -5
-25 -30 0 -27 -3 -30 -30 -30 -25 0 -30 -4 -30 -25 0 -20 -5 -25 -25 -25 -21
0 -25 -5 -25 -30 0 -27 -3 -30 -30 -30 -27 0 -30 -3 -30 -30 0 -25 -4 -30 -25
-30 -20 0 -25 -5 -25 -25 0 -21 -5 -25 -30 -25 -27 0 -30 -3 -30 -30 0 -27 -3
-30 -30 -30 -25 0 -30 -4 -30 -25 0 -20 -5 -25 -25 -25 -21 0 -25 -5 -25 -30
0 -27 -3 -30 -30 -30 -25 0 -30 -4 -30 -25 0 -20 -5 -25 -25 -25 -21 0 -25 -5
-25 -30 0 -27 -3 -30 -30 -30 -27 0 -30 -3 -30 -30 0 -25 -4 -30 -25 -30 -20
0 -25 -5 -25 -25 0 -21 -5 -25 -30 -25 -27 0 -30 -3 -30 -30 0 -27 -3 -30 -30
-30 -25 0 -30 -4 -30 -25 0 -20 -5 -25 -25 -25 -21 0 -25 -5 -25 -30 0 -27 -3
-30 -30 -30 -25 0 -30 -4 -30 -25 0 -20 -5 -25 -25 -25 -21 0 -25 -5 -25 -30
0 -27 -3 -30 -30 -30 -25 0 -30 -4 -30 -25 0 -20 -5 -25 -25 -25 -21 0 -25 -5
-25 -30 0 -27 -3 -30 -30 -30 -27 0 -30 -3 -30 -30 0 -27 -3 -30 -30 -30 -25
0 -30 -4 -30 -25 0 -20 -5 -25 -25 -25 -21 0 -25 -5 -25 -30 0 -27 -3 -30 -30
-30 -25 0 -30 -4 -30 -25 0 -20 -5 -25 -25 -25 -21 0 -25 -5 -25 -30 0 -27 -3
-30 -30 -30 -25 0 -30 -4 -30 -25 0 -20 -5 -25 -25 -25 -21 0 -25 -5 -25 -30
0 -27 -3 -30 -30 -30 -27 0 -30 -3 -30 -30 0 -25 -4 -30 -25 -30 -20 0 -25 -5
-25 -25 0 -21 -5 -25 -30 -25 -27 0 -30 -3 -30 -30 0 -27 -3 -30 -30 -30 -25
0 -30 -4 -30 -25 0 -20 -5 -25 -25 -25 -21 0 -25 -5 -25 -30 0 -27 -3 -30 -30
-30 -25 0 -30 -4 -30 -25 0 -20 -5 -25 -25 -25 -21 0 -25 -5 -25 -30 0 -27 -3
-30 -30 -30 -27 0 -30 -3 -30 -30 0 -25 -4 -30 -25 -30 -20 0 -25 -5 -25 -25
0 -21 -5 -25 -30 -25 -27 0 -30 -3 -30 -30 0 -27 -3 -30 -30 -30 -25 0 -30 -4
-30 -25 0 -20 -5 -25 -25 -25 -21 0 -25 -5 -25 -30 0 -27 -3 -30 -30 -30 -25
0 -30 -4 -30 -25 0 -20 -5 -25 -25 -25 -24 0 -25 -3 -25 -55 0 -54 0 -55 -30
-55 -27 0 -30 -3 -30 -30 0 -25 -4 -30 -25 -30 -21 0 -25 -5 -25 -30 0 -27 -3
-30 -30 -30 -30 0 -30 -1 -30 -55 0 -54 0 -55 -30 -55 -30 0 -30 -1 -30 -55 0
-52 -1 -55 -25 -55 -20 0 -25 -5 -25 -25 0 -24 -3 -25 -55 -25 -52 0 -55 1
-55 25 0 21 -5 25 -30 25 -27 0 -30 3 -30 30 0 25 -4 30 -25 30 -20 0 -25 5
-25 25 0 21 -5 25 -30 25 -27 0 -30 3 -30 30 0 25 -4 30 -25 30 -20 0 -25 5
-25 25 0 21 -5 25 -30 25 -27 0 -30 3 -30 30 0 27 -3 30 -30 30 -27 0 -30 3
-30 30 0 25 -4 30 -25 30 -20 0 -25 5 -25 25 0 21 -5 25 -30 25 -27 0 -30 3
-30 30 0 25 -4 30 -25 30 -20 0 -25 5 -25 25 0 21 -5 25 -30 25 -27 0 -30 3
-30 30 0 25 -4 30 -25 30 -20 0 -25 5 -25 25 0 21 -5 25 -30 25 -27 0 -30 3
-30 30 0 27 -3 30 -30 30 -25 0 -30 4 -30 25 0 20 -5 25 -25 25 -21 0 -25 5
-25 30 0 27 -3 30 -30 30 -27 0 -30 3 -30 30 0 25 -4 30 -25 30 -20 0 -25 5
-25 25 0 21 -5 25 -30 25 -27 0 -30 3 -30 30 0 25 -4 30 -25 30 -20 0 -25 5
-25 25 0 21 -5 25 -30 25 -27 0 -30 3 -30 30 0 27 -3 30 -30 30 -25 0 -30 4
-30 25 0 20 -5 25 -25 25 -21 0 -25 5 -25 30 0 27 -3 30 -30 30 -27 0 -30 3
-30 30 0 25 -4 30 -25 30 -20 0 -25 5 -25 25 0 21 -5 25 -30 25 -27 0 -30 3
-30 30 0 25 -4 30 -25 30 -20 0 -25 5 -25 25 0 21 -5 25 -30 25 -27 0 -30 3
-30 30 0 25 -4 30 -25 30 -20 0 -25 5 -25 25 0 21 -5 25 -30 25 -27 0 -30 3
-30 30 0 27 -3 30 -30 30 -30 0 -30 1 -30 55 0 52 -1 55 -25 55 -21 0 -25 5
-25 30 0 27 -3 30 -30 30 -25 0 -30 4 -30 25 0 20 -5 25 -25 25 -21 0 -25 5
-25 30 0 27 -3 30 -30 30 -25 0 -30 4 -30 25 0 20 -5 25 -25 25 -24 0 -25 3
-25 55 0 54 0 55 -30 55 -27 0 -30 3 -30 30 0 27 -3 30 -30 30 -27 0 -30 3
-30 30 0 25 -4 30 -25 30 -24 0 -25 3 -25 55 0 54 0 55 -30 55 -25 0 -30 4
-30 25 0 20 -5 25 -25 25 -24 0 -25 3 -25 55 0 54 0 55 -30 55 -27 0 -30 3
-30 30 0 25 -4 30 -25 30 -24 0 -25 3 -25 55 0 54 0 55 -30 55 -30 0 -30 1
-30 55 0 54 0 55 -30 55 -27 0 -30 3 -30 30 0 25 -4 30 -25 30 -24 0 -25 3
-25 55 0 54 0 55 -30 55 -30 0 -30 1 -30 55 0 52 -1 55 -25 55 -24 0 -25 3
-25 55 0 54 0 55 -30 55 -30 0 -30 1 -30 55 0 52 -1 55 -25 55 -24 0 -25 3
-25 55 0 54 0 55 -30 55 l-30 0 0 85 0 85 -30 0 c-30 0 -30 1 -30 55 0 52 -1
55 -25 55 -25 0 -25 1 -25 85 l0 85 -30 0 -30 0 0 85 c0 84 0 85 -25 85 -25 0
-25 1 -25 80 l0 80 -30 0 -30 0 0 115 0 115 -25 0 -25 0 0 110 0 110 -30 0
-30 0 0 140 0 140 -25 0 -25 0 0 165 0 165 -30 0 -30 0 0 725 0 725 30 0 30 0
0 220 0 220 25 0 25 0 0 140 0 140 30 0 30 0 0 110 0 110 25 0 c25 0 25 1 25
85 l0 85 30 0 30 0 0 110 0 110 25 0 c25 0 25 1 25 85 l0 85 30 0 c30 0 30 1
30 55 0 52 1 55 25 55 25 0 25 1 25 85 l0 85 30 0 c30 0 30 1 30 55 0 54 0 55
30 55 l30 0 0 85 c0 84 0 85 25 85 24 0 25 3 25 55 0 54 0 55 30 55 25 0 30 4
30 25 0 20 5 25 25 25 24 0 25 3 25 60 l0 60 30 0 c30 0 30 1 30 55 0 52 1 55
25 55 24 0 25 3 25 55 0 54 0 55 30 55 30 0 30 1 30 55 0 54 0 55 30 55 27 0
30 3 30 30 0 25 4 30 25 30 24 0 25 3 25 55 0 54 0 55 30 55 25 0 30 4 30 25
0 20 5 25 25 25 24 0 25 3 25 55 0 54 0 55 30 55 27 0 30 3 30 30 0 25 4 30
25 30 24 0 25 3 25 55 0 54 0 55 30 55 27 0 30 3 30 30 0 27 3 30 30 30 25 0
30 4 30 25 0 20 5 25 25 25 21 0 25 5 25 30 0 27 3 30 30 30 30 0 30 1 30 55
0 52 1 55 25 55 21 0 25 5 25 30 0 27 3 30 30 30 25 0 30 4 30 25 0 20 5 25
25 25 21 0 25 5 25 30 0 27 3 30 30 30 25 0 30 4 30 25 0 21 5 25 30 25 30 0
30 1 30 55 0 52 1 55 25 55 21 0 25 5 25 30 0 27 3 30 30 30 25 0 30 4 30 25
0 20 5 25 25 25 21 0 25 5 25 30 0 27 3 30 30 30 27 0 30 3 30 30 0 25 4 30
25 30 20 0 25 5 25 25 0 21 5 25 30 25 27 0 30 3 30 30 0 25 4 30 25 30 20 0
25 5 25 25 0 21 5 25 30 25 30 0 30 1 30 55 0 54 0 55 30 55 27 0 30 3 30 30
0 25 4 30 25 30 21 0 25 5 25 30 0 27 3 30 30 30 25 0 30 4 30 25 0 20 5 25
25 25 21 0 25 5 25 30 0 27 3 30 30 30 25 0 30 4 30 25 0 20 5 25 25 25 21 0
25 5 25 30 0 27 3 30 30 30 25 0 30 4 30 25 0 21 5 25 30 25 27 0 30 3 30 30
0 25 4 30 25 30 21 0 25 5 25 30 0 27 3 30 30 30 25 0 30 4 30 25 0 20 5 25
25 25 21 0 25 5 25 30 0 27 3 30 30 30 25 0 30 4 30 25 0 20 5 25 25 25 21 0
25 5 25 30 l0 30 60 0 c57 0 60 1 60 25 0 20 5 25 25 25 21 0 25 5 25 30 0 27
3 30 30 30 25 0 30 4 30 25 0 20 5 25 25 25 21 0 25 5 25 30 0 27 3 30 30 30
27 0 30 3 30 30 0 30 1 30 55 30 52 0 55 1 55 25 0 20 5 25 25 25 21 0 25 5
25 30 0 27 3 30 30 30 25 0 30 4 30 25 0 24 3 25 55 25 54 0 55 0 55 30 0 27
3 30 30 30 25 0 30 4 30 25 0 24 3 25 55 25 54 0 55 0 55 30 0 25 4 30 25 30
21 0 25 5 25 30 l0 30 60 0 c57 0 60 1 60 25 0 20 5 25 25 25 21 0 25 5 25 30
0 30 1 30 55 30 52 0 55 1 55 25 0 24 3 25 55 25 54 0 55 0 55 30 0 27 3 30
30 30 25 0 30 4 30 25 0 24 3 25 55 25 54 0 55 0 55 30 0 30 1 30 55 30 54 0
55 0 55 30 0 30 1 30 55 30 52 0 55 1 55 25 0 24 3 25 55 25 54 0 55 0 55 30
l0 30 60 0 c57 0 60 1 60 25 0 25 1 25 80 25 l80 0 0 30 c0 30 1 30 55 30 52
0 55 1 55 25 0 25 1 25 85 25 l85 0 0 30 c0 30 1 30 55 30 52 0 55 1 55 25 0
25 1 25 85 25 l85 0 0 30 0 30 85 0 85 0 0 30 0 30 80 0 c79 0 80 0 80 25 l0
25 115 0 115 0 0 30 0 30 135 0 135 0 0 25 0 25 115 0 115 0 0 30 0 30 195 0
195 0 0 25 0 25 305 0 305 0 0 30 0 30 390 0 390 0 0 -30z m10020 -110 l0 -30
195 0 195 0 0 -25 0 -25 135 0 135 0 0 -30 0 -30 115 0 115 0 0 -25 0 -25 110
0 110 0 0 -30 0 -30 110 0 110 0 0 -30 0 -30 85 0 c84 0 85 0 85 -25 0 -25 1
-25 85 -25 l85 0 0 -30 0 -30 80 0 c79 0 80 0 80 -25 0 -24 3 -25 55 -25 54 0
55 0 55 -30 l0 -30 60 0 c57 0 60 -1 60 -25 0 -25 1 -25 80 -25 l80 0 0 -30
c0 -30 1 -30 55 -30 52 0 55 -1 55 -25 0 -24 3 -25 60 -25 l60 0 0 -30 c0 -30
1 -30 55 -30 54 0 55 0 55 -30 0 -30 1 -30 55 -30 52 0 55 -1 55 -25 0 -24 3
-25 55 -25 54 0 55 0 55 -30 0 -27 3 -30 30 -30 25 0 30 -4 30 -25 0 -24 3
-25 55 -25 54 0 55 0 55 -30 0 -30 1 -30 55 -30 52 0 55 -1 55 -25 0 -20 5
-25 25 -25 21 0 25 -5 25 -30 0 -30 1 -30 55 -30 54 0 55 0 55 -30 0 -27 3
-30 30 -30 25 0 30 -4 30 -25 0 -24 3 -25 55 -25 54 0 55 0 55 -30 0 -27 3
-30 30 -30 25 0 30 -4 30 -25 0 -20 5 -25 25 -25 21 0 25 -5 25 -30 0 -30 1
-30 55 -30 52 0 55 -1 55 -25 0 -21 5 -25 30 -25 27 0 30 -3 30 -30 0 -27 3
-30 30 -30 27 0 30 -3 30 -30 0 -25 4 -30 25 -30 20 0 25 -5 25 -25 0 -21 5
-25 30 -25 27 0 30 -3 30 -30 0 -25 4 -30 25 -30 20 0 25 -5 25 -25 0 -21 5
-25 30 -25 27 0 30 -3 30 -30 0 -25 4 -30 25 -30 20 0 25 -5 25 -25 0 -21 5
-25 30 -25 27 0 30 -3 30 -30 0 -27 3 -30 30 -30 25 0 30 -4 30 -25 0 -20 5
-25 25 -25 21 0 25 -5 25 -30 0 -27 3 -30 30 -30 27 0 30 -3 30 -30 0 -25 4
-30 25 -30 20 0 25 -5 25 -25 0 -21 5 -25 30 -25 27 0 30 -3 30 -30 0 -25 4
-30 25 -30 20 0 25 -5 25 -25 0 -21 5 -25 30 -25 27 0 30 -3 30 -30 0 -25 4
-30 25 -30 20 0 25 -5 25 -25 0 -21 5 -25 30 -25 27 0 30 -3 30 -30 0 -27 3
-30 30 -30 27 0 30 -3 30 -30 0 -25 4 -30 25 -30 20 0 25 -5 25 -25 0 -21 5
-25 30 -25 27 0 30 -3 30 -30 0 -25 4 -30 25 -30 20 0 25 -5 25 -25 0 -21 5
-25 30 -25 27 0 30 -3 30 -30 0 -25 4 -30 25 -30 20 0 25 -5 25 -25 0 -21 5
-25 30 -25 27 0 30 -3 30 -30 0 -27 3 -30 30 -30 27 0 30 -3 30 -30 0 -25 4
-30 25 -30 20 0 25 -5 25 -25 0 -21 5 -25 30 -25 27 0 30 -3 30 -30 0 -25 4
-30 25 -30 24 0 25 -3 25 -55 0 -54 0 -55 30 -55 25 0 30 -4 30 -25 0 -20 5
-25 25 -25 21 0 25 -5 25 -30 0 -27 3 -30 30 -30 25 0 30 -4 30 -25 0 -21 5
-25 30 -25 l30 0 0 -60 c0 -57 1 -60 25 -60 20 0 25 -5 25 -25 0 -21 5 -25 30
-25 27 0 30 -3 30 -30 0 -25 4 -30 25 -30 24 0 25 -3 25 -55 0 -54 0 -55 30
-55 25 0 30 -4 30 -25 0 -20 5 -25 25 -25 24 0 25 -3 25 -60 l0 -60 30 0 c25
0 30 -4 30 -25 0 -21 5 -25 30 -25 30 0 30 -1 30 -55 0 -52 1 -55 25 -55 24 0
25 -3 25 -55 0 -54 0 -55 30 -55 l30 0 0 -60 c0 -57 1 -60 25 -60 20 0 25 -5
25 -25 0 -21 5 -25 30 -25 30 0 30 -1 30 -55 0 -52 1 -55 25 -55 24 0 25 -3
25 -55 0 -54 0 -55 30 -55 l30 0 0 -60 c0 -57 1 -60 25 -60 24 0 25 -3 25 -55
0 -54 0 -55 30 -55 l30 0 0 -80 0 -80 30 0 c30 0 30 -1 30 -55 0 -52 1 -55 25
-55 24 0 25 -3 25 -60 l0 -60 30 0 30 0 0 -80 c0 -79 0 -80 25 -80 25 0 25 -1
25 -85 l0 -85 30 0 30 0 0 -85 c0 -84 0 -85 25 -85 l25 0 0 -110 0 -110 30 0
30 0 0 -110 0 -110 30 0 30 0 0 -140 0 -140 25 0 25 0 0 -165 0 -165 30 0 30
0 0 -835 0 -835 -30 0 -30 0 0 -170 0 -170 -25 0 -25 0 0 -140 0 -140 -30 0
-30 0 0 -110 0 -110 -30 0 -30 0 0 -110 0 -110 -25 0 c-25 0 -25 -1 -25 -85
l0 -85 -30 0 -30 0 0 -85 c0 -84 0 -85 -25 -85 -25 0 -25 -1 -25 -80 l0 -80
-30 0 c-30 0 -30 -1 -30 -55 0 -52 -1 -55 -25 -55 -24 0 -25 -3 -25 -60 l0
-60 -30 0 -30 0 0 -80 0 -80 -30 0 c-30 0 -30 -1 -30 -55 0 -52 -1 -55 -25
-55 -24 0 -25 -3 -25 -55 0 -54 0 -55 -30 -55 l-30 0 0 -60 c0 -57 -1 -60 -25
-60 -24 0 -25 -3 -25 -55 0 -54 0 -55 -30 -55 -30 0 -30 -1 -30 -55 0 -52 -1
-55 -25 -55 -20 0 -25 -5 -25 -25 0 -21 -5 -25 -30 -25 -25 0 -30 4 -30 25 0
20 -5 25 -25 25 -21 0 -25 5 -25 30 0 27 -3 30 -30 30 -30 0 -30 1 -30 55 0
54 0 55 -30 55 -25 0 -30 4 -30 25 0 20 -5 25 -25 25 -21 0 -25 5 -25 30 0 27
-3 30 -30 30 -27 0 -30 3 -30 30 0 25 -4 30 -25 30 -20 0 -25 5 -25 25 0 21
-5 25 -30 25 -27 0 -30 3 -30 30 0 25 -4 30 -25 30 -20 0 -25 5 -25 25 0 21
-5 25 -30 25 -27 0 -30 3 -30 30 0 27 -3 30 -30 30 -25 0 -30 4 -30 25 0 20
-5 25 -25 25 -21 0 -25 5 -25 30 0 27 -3 30 -30 30 -25 0 -30 4 -30 25 0 20
-5 25 -25 25 -21 0 -25 5 -25 30 0 27 -3 30 -30 30 -27 0 -30 3 -30 30 0 25
-4 30 -25 30 -20 0 -25 5 -25 25 0 21 -5 25 -30 25 -27 0 -30 3 -30 30 0 27
-3 30 -30 30 -25 0 -30 4 -30 25 0 20 -5 25 -25 25 -21 0 -25 5 -25 30 0 27
-3 30 -30 30 -25 0 -30 4 -30 25 0 20 -5 25 -25 25 -21 0 -25 5 -25 30 0 27
-3 30 -30 30 -27 0 -30 3 -30 30 0 25 -4 30 -25 30 -20 0 -25 5 -25 25 0 21
-5 25 -30 25 -27 0 -30 3 -30 30 0 27 -3 30 -30 30 -25 0 -30 4 -30 25 0 20
-5 25 -25 25 -21 0 -25 5 -25 30 0 27 -3 30 -30 30 -25 0 -30 4 -30 25 0 20
-5 25 -25 25 -21 0 -25 5 -25 30 0 27 -3 30 -30 30 -27 0 -30 3 -30 30 0 25
-4 30 -25 30 -20 0 -25 5 -25 25 0 21 -5 25 -30 25 -27 0 -30 3 -30 30 0 25
-4 30 -25 30 -20 0 -25 5 -25 25 0 21 -5 25 -30 25 -27 0 -30 3 -30 30 0 27
-3 30 -30 30 -25 0 -30 4 -30 25 0 20 -5 25 -25 25 -21 0 -25 5 -25 30 0 27
-3 30 -30 30 -25 0 -30 4 -30 25 0 20 -5 25 -25 25 -21 0 -25 5 -25 30 0 27
-3 30 -30 30 -27 0 -30 3 -30 30 0 25 -4 30 -25 30 -20 0 -25 5 -25 25 0 21
-5 25 -30 25 -27 0 -30 3 -30 30 0 27 -3 30 -30 30 -25 0 -30 4 -30 25 0 20
-5 25 -25 25 -21 0 -25 5 -25 30 0 27 -3 30 -30 30 -25 0 -30 4 -30 25 0 20
-5 25 -25 25 -21 0 -25 5 -25 30 0 27 -3 30 -30 30 -27 0 -30 3 -30 30 0 25
-4 30 -25 30 -20 0 -25 5 -25 25 0 21 -5 25 -30 25 -27 0 -30 3 -30 30 0 27
-3 30 -30 30 -25 0 -30 4 -30 25 0 20 -5 25 -25 25 -21 0 -25 5 -25 30 0 27
-3 30 -30 30 -25 0 -30 4 -30 25 0 20 -5 25 -25 25 -21 0 -25 5 -25 30 0 27
-3 30 -30 30 -27 0 -30 3 -30 30 0 25 -4 30 -25 30 -20 0 -25 5 -25 25 0 21
-5 25 -30 25 -27 0 -30 3 -30 30 0 25 -4 30 -25 30 -20 0 -25 5 -25 25 0 21
-5 25 -30 25 -27 0 -30 3 -30 30 0 27 -3 30 -30 30 -25 0 -30 4 -30 25 0 20
-5 25 -25 25 -21 0 -25 5 -25 30 0 27 -3 30 -30 30 -27 0 -30 3 -30 30 0 25
-4 30 -25 30 -20 0 -25 5 -25 25 0 21 -5 25 -30 25 -27 0 -30 3 -30 30 0 25
-4 30 -25 30 -20 0 -25 5 -25 25 0 21 -5 25 -30 25 -27 0 -30 3 -30 30 0 27
-3 30 -30 30 -25 0 -30 4 -30 25 0 20 -5 25 -25 25 -21 0 -25 5 -25 30 0 27
-3 30 -30 30 -25 0 -30 4 -30 25 0 20 -5 25 -25 25 -21 0 -25 5 -25 30 0 27
-3 30 -30 30 -27 0 -30 3 -30 30 0 25 -4 30 -25 30 -20 0 -25 5 -25 25 0 21
-5 25 -30 25 -27 0 -30 3 -30 30 0 27 -3 30 -30 30 -25 0 -30 4 -30 25 0 20
-5 25 -25 25 -21 0 -25 5 -25 30 0 27 -3 30 -30 30 -25 0 -30 4 -30 25 0 20
-5 25 -25 25 -21 0 -25 5 -25 30 0 27 -3 30 -30 30 -27 0 -30 3 -30 30 0 25
-4 30 -25 30 -20 0 -25 5 -25 25 0 21 -5 25 -30 25 -27 0 -30 3 -30 30 0 25
-4 30 -25 30 -20 0 -25 5 -25 25 0 21 -5 25 -30 25 -27 0 -30 3 -30 30 0 27
-3 30 -30 30 -25 0 -30 4 -30 25 0 20 -5 25 -25 25 -21 0 -25 5 -25 30 0 27
-3 30 -30 30 -30 0 -30 1 -30 55 l0 55 55 0 c54 0 55 0 55 30 l0 30 60 0 c57
0 60 1 60 25 0 24 3 25 55 25 54 0 55 0 55 30 0 30 1 30 55 30 52 0 55 1 55
25 0 20 5 25 25 25 21 0 25 5 25 30 0 27 3 30 30 30 25 0 30 4 30 25 0 20 5
25 25 25 21 0 25 5 25 30 l0 30 60 0 60 0 0 30 c0 25 4 30 25 30 20 0 25 5 25
25 0 21 5 25 30 25 27 0 30 3 30 30 0 25 4 30 25 30 20 0 25 5 25 25 0 21 5
25 30 25 27 0 30 3 30 30 0 25 4 30 25 30 20 0 25 5 25 25 0 21 5 25 30 25 27
0 30 3 30 30 0 27 3 30 30 30 27 0 30 3 30 30 0 25 4 30 25 30 20 0 25 5 25
25 0 21 5 25 30 25 27 0 30 3 30 30 0 25 4 30 25 30 20 0 25 5 25 25 0 21 5
25 30 25 27 0 30 3 30 30 0 25 4 30 25 30 20 0 25 5 25 25 0 21 5 25 30 25 27
0 30 3 30 30 0 27 3 30 30 30 27 0 30 3 30 30 0 25 4 30 25 30 20 0 25 5 25
25 0 21 5 25 30 25 27 0 30 3 30 30 0 25 4 30 25 30 20 0 25 5 25 25 0 21 5
25 30 25 27 0 30 3 30 30 0 25 4 30 25 30 24 0 25 3 25 55 0 52 -1 55 -25 55
-20 0 -25 5 -25 25 0 21 -5 25 -30 25 -27 0 -30 3 -30 30 0 25 -4 30 -25 30
-21 0 -25 5 -25 30 0 27 -3 30 -30 30 -25 0 -30 4 -30 25 0 20 -5 25 -25 25
-21 0 -25 5 -25 30 0 27 -3 30 -30 30 -25 0 -30 4 -30 25 0 21 -5 25 -30 25
-27 0 -30 3 -30 30 0 25 -4 30 -25 30 -20 0 -25 5 -25 25 0 21 -5 25 -30 25
-27 0 -30 3 -30 30 0 25 -4 30 -25 30 -21 0 -25 5 -25 30 0 27 -3 30 -30 30
-25 0 -30 4 -30 25 0 20 -5 25 -25 25 -21 0 -25 5 -25 30 0 27 -3 30 -30 30
-25 0 -30 4 -30 25 0 21 -5 25 -30 25 -27 0 -30 3 -30 30 0 25 -4 30 -25 30
-20 0 -25 5 -25 25 0 21 -5 25 -30 25 -27 0 -30 3 -30 30 0 25 -4 30 -25 30
-21 0 -25 5 -25 30 0 27 -3 30 -30 30 -25 0 -30 4 -30 25 0 20 -5 25 -25 25
-21 0 -25 5 -25 30 0 27 -3 30 -30 30 -25 0 -30 4 -30 25 0 21 -5 25 -30 25
-25 0 -30 -4 -30 -25 0 -20 -5 -25 -25 -25 -21 0 -25 -5 -25 -30 0 -27 -3 -30
-30 -30 -25 0 -30 -4 -30 -25 0 -20 -5 -25 -25 -25 -21 0 -25 -5 -25 -30 0
-27 -3 -30 -30 -30 -27 0 -30 -3 -30 -30 0 -25 -4 -30 -25 -30 -20 0 -25 -5
-25 -25 0 -21 -5 -25 -30 -25 -27 0 -30 -3 -30 -30 0 -25 -4 -30 -25 -30 -20
0 -25 -5 -25 -25 0 -21 -5 -25 -30 -25 -27 0 -30 -3 -30 -30 0 -27 -3 -30 -30
-30 -25 0 -30 -4 -30 -25 0 -20 -5 -25 -25 -25 -21 0 -25 -5 -25 -30 0 -27 -3
-30 -30 -30 -27 0 -30 -3 -30 -30 0 -25 -4 -30 -25 -30 -20 0 -25 -5 -25 -25
0 -21 -5 -25 -30 -25 -27 0 -30 -3 -30 -30 0 -25 -4 -30 -25 -30 -20 0 -25 -5
-25 -25 0 -21 -5 -25 -30 -25 -27 0 -30 -3 -30 -30 0 -27 -3 -30 -30 -30 -25
0 -30 -4 -30 -25 0 -20 -5 -25 -25 -25 -21 0 -25 -5 -25 -30 0 -27 -3 -30 -30
-30 -27 0 -30 -3 -30 -30 0 -25 -4 -30 -25 -30 -20 0 -25 -5 -25 -25 0 -21 -5
-25 -30 -25 -27 0 -30 -3 -30 -30 l0 -30 -85 0 c-84 0 -85 0 -85 -25 0 -25 -1
-25 -80 -25 l-80 0 0 -30 0 -30 -170 0 -170 0 0 30 0 30 -80 0 c-79 0 -80 0
-80 25 0 25 -1 25 -85 25 l-85 0 0 30 c0 30 -1 30 -55 30 -52 0 -55 1 -55 25
0 21 -5 25 -30 25 -27 0 -30 3 -30 30 0 25 -4 30 -25 30 -21 0 -25 5 -25 30 0
30 -1 30 -55 30 -52 0 -55 1 -55 25 0 21 -5 25 -30 25 -27 0 -30 3 -30 30 0
27 -3 30 -30 30 -25 0 -30 4 -30 25 0 20 -5 25 -25 25 -21 0 -25 5 -25 30 0
30 -1 30 -55 30 -52 0 -55 1 -55 25 0 21 -5 25 -30 25 -27 0 -30 3 -30 30 0
25 -4 30 -25 30 -21 0 -25 5 -25 30 l0 30 -60 0 c-57 0 -60 1 -60 25 0 24 -3
25 -55 25 -54 0 -55 0 -55 30 0 30 -1 30 -55 30 -52 0 -55 1 -55 25 0 20 -5
25 -25 25 -21 0 -25 5 -25 30 l0 30 -85 0 c-84 0 -85 0 -85 25 0 25 -1 25 -85
25 l-85 0 0 30 0 30 -110 0 -110 0 0 30 0 30 -140 0 -140 0 0 25 0 25 -305 0
-305 0 0 -25 0 -25 -165 0 -165 0 0 -30 0 -30 -85 0 -85 0 0 -30 0 -30 -85 0
c-84 0 -85 0 -85 -25 0 -25 -1 -25 -85 -25 l-85 0 0 -30 c0 -30 -1 -30 -55
-30 -52 0 -55 -1 -55 -25 0 -24 -3 -25 -55 -25 -54 0 -55 0 -55 -30 0 -25 -4
-30 -25 -30 -20 0 -25 -5 -25 -25 0 -24 -3 -25 -60 -25 l-60 0 0 -30 c0 -30
-1 -30 -55 -30 -54 0 -55 0 -55 -30 0 -25 -4 -30 -25 -30 -20 0 -25 -5 -25
-25 0 -24 -3 -25 -55 -25 -54 0 -55 0 -55 -30 0 -27 -3 -30 -30 -30 -25 0 -30
-4 -30 -25 0 -24 -3 -25 -55 -25 -54 0 -55 0 -55 -30 0 -27 -3 -30 -30 -30
-25 0 -30 -4 -30 -25 0 -24 -3 -25 -55 -25 -54 0 -55 0 -55 -30 0 -25 -4 -30
-25 -30 -21 0 -25 -5 -25 -30 0 -30 -1 -30 -55 -30 -52 0 -55 -1 -55 -25 0
-21 -5 -25 -30 -25 -27 0 -30 -3 -30 -30 0 -30 -1 -30 -55 -30 -52 0 -55 -1
-55 -25 0 -21 -5 -25 -30 -25 -27 0 -30 -3 -30 -30 0 -30 -1 -30 -55 -30 -52
0 -55 -1 -55 -25 0 -20 -5 -25 -25 -25 -21 0 -25 -5 -25 -30 l0 -30 -60 0
c-57 0 -60 -1 -60 -25 0 -20 -5 -25 -25 -25 -21 0 -25 -5 -25 -30 0 -30 -1
-30 -55 -30 -54 0 -55 0 -55 -30 0 -27 -3 -30 -30 -30 -25 0 -30 -4 -30 -25 0
-24 -3 -25 -55 -25 -54 0 -55 0 -55 -30 0 -25 -4 -30 -25 -30 -20 0 -25 -5
-25 -25 0 -24 -3 -25 -60 -25 l-60 0 0 -30 c0 -25 -4 -30 -25 -30 -20 0 -25
-5 -25 -25 0 -24 -3 -25 -55 -25 -54 0 -55 0 -55 -30 0 -27 -3 -30 -30 -30
-27 0 -30 -3 -30 -30 0 -30 -1 -30 -55 -30 -52 0 -55 -1 -55 -25 0 -21 -5 -25
-30 -25 -27 0 -30 -3 -30 -30 0 -30 -1 -30 -55 -30 -52 0 -55 -1 -55 -25 0
-20 -5 -25 -25 -25 -21 0 -25 -5 -25 -30 0 -30 -1 -30 -55 -30 -52 0 -55 -1
-55 -25 0 -21 -5 -25 -30 -25 -27 0 -30 -3 -30 -30 0 -30 -1 -30 -55 -30 -54
0 -55 0 -55 -30 0 -27 -3 -30 -30 -30 -25 0 -30 -4 -30 -25 0 -24 -3 -25 -55
-25 -54 0 -55 0 -55 -30 0 -25 -4 -30 -25 -30 -20 0 -25 -5 -25 -25 0 -24 -3
-25 -55 -25 -54 0 -55 0 -55 -30 0 -27 -3 -30 -30 -30 -25 0 -30 -4 -30 -25 0
-24 -3 -25 -55 -25 -54 0 -55 0 -55 -30 0 -27 -3 -30 -30 -30 -25 0 -30 -4
-30 -25 0 -24 -3 -25 -55 -25 -54 0 -55 0 -55 -30 0 -25 -4 -30 -25 -30 -21 0
-25 -5 -25 -30 l0 -30 -60 0 c-57 0 -60 -1 -60 -25 0 -20 -5 -25 -25 -25 -21
0 -25 -5 -25 -30 0 -30 -1 -30 -55 -30 -52 0 -55 -1 -55 -25 0 -21 -5 -25 -30
-25 -27 0 -30 -3 -30 -30 0 -30 -1 -30 -55 -30 -52 0 -55 -1 -55 -25 0 -21 -5
-25 -30 -25 -27 0 -30 -3 -30 -30 0 -30 -1 -30 -55 -30 -54 0 -55 0 -55 -30 0
-25 -4 -30 -25 -30 -20 0 -25 -5 -25 -25 0 -24 -3 -25 -55 -25 -54 0 -55 0
-55 -30 0 -27 -3 -30 -30 -30 -25 0 -30 -4 -30 -25 0 -24 -3 -25 -55 -25 -54
0 -55 0 -55 -30 0 -27 -3 -30 -30 -30 -25 0 -30 -4 -30 -25 0 -24 -3 -25 -55
-25 -54 0 -55 0 -55 -30 0 -25 -4 -30 -25 -30 -21 0 -25 -5 -25 -30 0 -30 -1
-30 -55 -30 -52 0 -55 -1 -55 -25 0 -24 -3 -25 -60 -25 l-60 0 0 -30 0 -30
-330 0 -330 0 0 30 0 30 -85 0 c-84 0 -85 0 -85 25 0 21 -5 25 -30 25 -27 0
-30 3 -30 30 0 30 -1 30 -55 30 -54 0 -55 0 -55 30 0 25 -4 30 -25 30 -20 0
-25 5 -25 25 0 21 -5 25 -30 25 -27 0 -30 3 -30 30 0 25 -4 30 -25 30 -24 0
-25 3 -25 55 0 54 0 55 -30 55 -30 0 -30 1 -30 55 0 54 0 55 -30 55 -30 0 -30
1 -30 55 0 52 -1 55 -25 55 l-25 0 0 140 0 140 -30 0 c-30 0 -30 1 -30 55 0
54 0 55 30 55 l30 0 0 140 0 140 25 0 c24 0 25 3 25 55 0 54 0 55 30 55 30 0
30 1 30 55 0 54 0 55 30 55 27 0 30 3 30 30 0 25 4 30 25 30 20 0 25 5 25 25
0 21 5 25 30 25 27 0 30 3 30 30 0 25 4 30 25 30 20 0 25 5 25 25 0 21 5 25
30 25 27 0 30 3 30 30 0 25 4 30 25 30 21 0 25 5 25 30 0 27 3 30 30 30 25 0
30 4 30 25 0 20 5 25 25 25 21 0 25 5 25 30 0 27 3 30 30 30 25 0 30 4 30 25
0 21 5 25 30 25 27 0 30 3 30 30 0 25 4 30 25 30 20 0 25 5 25 25 0 21 5 25
30 25 27 0 30 3 30 30 0 25 4 30 25 30 21 0 25 5 25 30 0 27 3 30 30 30 25 0
30 4 30 25 0 20 5 25 25 25 21 0 25 5 25 30 0 27 3 30 30 30 25 0 30 4 30 25
0 21 5 25 30 25 27 0 30 3 30 30 0 25 4 30 25 30 20 0 25 5 25 25 0 21 5 25
30 25 27 0 30 3 30 30 0 25 4 30 25 30 20 0 25 5 25 25 0 21 5 25 30 25 27 0
30 3 30 30 0 25 4 30 25 30 21 0 25 5 25 30 0 27 3 30 30 30 25 0 30 4 30 25
0 21 5 25 30 25 27 0 30 3 30 30 0 25 4 30 25 30 20 0 25 5 25 25 0 21 5 25
30 25 27 0 30 3 30 30 0 25 4 30 25 30 20 0 25 5 25 25 0 21 5 25 30 25 27 0
30 3 30 30 0 25 4 30 25 30 21 0 25 5 25 30 0 27 3 30 30 30 25 0 30 4 30 25
0 21 5 25 30 25 27 0 30 3 30 30 0 25 4 30 25 30 20 0 25 5 25 25 0 21 5 25
30 25 27 0 30 3 30 30 0 25 4 30 25 30 20 0 25 5 25 25 0 21 5 25 30 25 27 0
30 3 30 30 0 25 4 30 25 30 21 0 25 5 25 30 0 27 3 30 30 30 25 0 30 4 30 25
0 20 5 25 25 25 21 0 25 5 25 30 0 27 3 30 30 30 25 0 30 4 30 25 0 21 5 25
30 25 27 0 30 3 30 30 0 25 4 30 25 30 20 0 25 5 25 25 0 21 5 25 30 25 27 0
30 3 30 30 0 25 4 30 25 30 21 0 25 5 25 30 0 27 3 30 30 30 25 0 30 4 30 25
0 20 5 25 25 25 21 0 25 5 25 30 0 27 3 30 30 30 25 0 30 4 30 25 0 21 5 25
30 25 27 0 30 3 30 30 0 25 4 30 25 30 20 0 25 5 25 25 0 21 5 25 30 25 27 0
30 3 30 30 0 25 4 30 25 30 20 0 25 5 25 25 0 21 5 25 30 25 27 0 30 3 30 30
0 25 4 30 25 30 21 0 25 5 25 30 0 27 3 30 30 30 25 0 30 4 30 25 0 21 5 25
30 25 27 0 30 3 30 30 0 25 4 30 25 30 20 0 25 5 25 25 0 21 5 25 30 25 27 0
30 3 30 30 0 25 4 30 25 30 20 0 25 5 25 25 0 21 5 25 30 25 27 0 30 3 30 30
0 25 4 30 25 30 21 0 25 5 25 30 0 27 3 30 30 30 25 0 30 4 30 25 0 20 5 25
25 25 21 0 25 5 25 30 0 27 3 30 30 30 25 0 30 4 30 25 0 21 5 25 30 25 27 0
30 3 30 30 0 25 4 30 25 30 20 0 25 5 25 25 0 21 5 25 30 25 27 0 30 3 30 30
0 25 4 30 25 30 21 0 25 5 25 30 0 27 3 30 30 30 25 0 30 4 30 25 0 20 5 25
25 25 21 0 25 5 25 30 l0 30 60 0 c57 0 60 1 60 25 0 20 5 25 25 25 21 0 25 5
25 30 0 27 3 30 30 30 25 0 30 4 30 25 0 20 5 25 25 25 21 0 25 5 25 30 0 30
1 30 55 30 52 0 55 1 55 25 0 21 5 25 30 25 27 0 30 3 30 30 0 27 3 30 30 30
27 0 30 3 30 30 0 30 1 30 55 30 52 0 55 1 55 25 0 20 5 25 25 25 21 0 25 5
25 30 0 30 1 30 55 30 52 0 55 1 55 25 0 21 5 25 30 25 27 0 30 3 30 30 0 30
1 30 55 30 52 0 55 1 55 25 0 21 5 25 30 25 27 0 30 3 30 30 0 30 1 30 55 30
54 0 55 0 55 30 0 30 1 30 55 30 52 0 55 1 55 25 0 20 5 25 25 25 21 0 25 5
25 30 l0 30 60 0 c57 0 60 1 60 25 0 24 3 25 55 25 54 0 55 0 55 30 0 30 1 30
55 30 52 0 55 1 55 25 0 24 3 25 55 25 54 0 55 0 55 30 0 30 1 30 55 30 54 0
55 0 55 30 0 30 1 30 55 30 52 0 55 1 55 25 0 24 3 25 55 25 54 0 55 0 55 30
l0 30 85 0 c84 0 85 0 85 25 0 24 3 25 55 25 54 0 55 0 55 30 l0 30 85 0 c84
0 85 0 85 25 0 25 1 25 85 25 l85 0 0 30 0 30 80 0 c79 0 80 0 80 25 0 25 1
25 85 25 l85 0 0 30 0 30 110 0 110 0 0 30 0 30 115 0 115 0 0 25 0 25 110 0
110 0 0 30 0 30 140 0 140 0 0 25 0 25 220 0 220 0 0 30 0 30 865 0 865 0 0
-30z m-10240 -11300 l0 -30 80 0 c79 0 80 0 80 -25 0 -24 3 -25 55 -25 54 0
55 0 55 -30 0 -27 3 -30 30 -30 25 0 30 -4 30 -25 0 -21 5 -25 30 -25 27 0 30
-3 30 -30 0 -25 4 -30 25 -30 20 0 25 -5 25 -25 0 -21 5 -25 30 -25 30 0 30
-1 30 -55 0 -52 1 -55 25 -55 24 0 25 -3 25 -60 l0 -60 30 0 30 0 0 -110 0
-110 25 0 c24 0 25 -3 25 -55 0 -52 -1 -55 -25 -55 l-25 0 0 -140 0 -140 -30
0 c-30 0 -30 -1 -30 -55 0 -52 -1 -55 -25 -55 -21 0 -25 -5 -25 -30 0 -27 -3
-30 -30 -30 -30 0 -30 -1 -30 -55 0 -52 -1 -55 -25 -55 -20 0 -25 -5 -25 -25
0 -21 -5 -25 -30 -25 -27 0 -30 -3 -30 -30 0 -27 -3 -30 -30 -30 -25 0 -30 -4
-30 -25 0 -20 -5 -25 -25 -25 -21 0 -25 -5 -25 -30 0 -27 -3 -30 -30 -30 -25
0 -30 -4 -30 -25 0 -20 -5 -25 -25 -25 -21 0 -25 -5 -25 -30 0 -27 -3 -30 -30
-30 -27 0 -30 -3 -30 -30 0 -25 -4 -30 -25 -30 -20 0 -25 -5 -25 -25 0 -21 -5
-25 -30 -25 -27 0 -30 -3 -30 -30 0 -27 -3 -30 -30 -30 -25 0 -30 -4 -30 -25
0 -20 -5 -25 -25 -25 -21 0 -25 -5 -25 -30 0 -27 -3 -30 -30 -30 -25 0 -30 -4
-30 -25 0 -20 -5 -25 -25 -25 -21 0 -25 -5 -25 -30 0 -27 -3 -30 -30 -30 -27
0 -30 -3 -30 -30 0 -25 -4 -30 -25 -30 -20 0 -25 -5 -25 -25 0 -21 -5 -25 -30
-25 -27 0 -30 -3 -30 -30 0 -27 -3 -30 -30 -30 -25 0 -30 -4 -30 -25 0 -20 -5
-25 -25 -25 -21 0 -25 -5 -25 -30 0 -27 -3 -30 -30 -30 -25 0 -30 -4 -30 -25
0 -20 -5 -25 -25 -25 -21 0 -25 -5 -25 -30 0 -27 -3 -30 -30 -30 -27 0 -30 -3
-30 -30 0 -25 -4 -30 -25 -30 -20 0 -25 -5 -25 -25 0 -21 -5 -25 -30 -25 -27
0 -30 -3 -30 -30 0 -25 -4 -30 -25 -30 -20 0 -25 -5 -25 -25 0 -21 -5 -25 -30
-25 -27 0 -30 -3 -30 -30 0 -27 -3 -30 -30 -30 -25 0 -30 -4 -30 -25 0 -20 -5
-25 -25 -25 -21 0 -25 -5 -25 -30 0 -27 -3 -30 -30 -30 -27 0 -30 -3 -30 -30
0 -25 -4 -30 -25 -30 -20 0 -25 -5 -25 -25 0 -21 -5 -25 -30 -25 -27 0 -30 -3
-30 -30 0 -25 -4 -30 -25 -30 -20 0 -25 -5 -25 -25 0 -21 -5 -25 -30 -25 -27
0 -30 -3 -30 -30 0 -27 -3 -30 -30 -30 -25 0 -30 -4 -30 -25 0 -20 -5 -25 -25
-25 -21 0 -25 -5 -25 -30 0 -27 -3 -30 -30 -30 -25 0 -30 -4 -30 -25 0 -20 -5
-25 -25 -25 -21 0 -25 -5 -25 -30 0 -27 -3 -30 -30 -30 -27 0 -30 -3 -30 -30
0 -25 -4 -30 -25 -30 -20 0 -25 -5 -25 -25 0 -21 -5 -25 -30 -25 -27 0 -30 -3
-30 -30 0 -27 -3 -30 -30 -30 -25 0 -30 -4 -30 -25 0 -20 -5 -25 -25 -25 -21
0 -25 -5 -25 -30 0 -27 -3 -30 -30 -30 -25 0 -30 -4 -30 -25 0 -20 -5 -25 -25
-25 -21 0 -25 -5 -25 -30 0 -27 -3 -30 -30 -30 -27 0 -30 -3 -30 -30 0 -30 -1
-30 -55 -30 -52 0 -55 -1 -55 -25 0 -24 -3 -25 -55 -25 -54 0 -55 0 -55 -30 0
-30 -1 -30 -55 -30 -52 0 -55 -1 -55 -25 l0 -25 -225 0 -225 0 0 25 c0 25 -1
25 -80 25 l-80 0 0 30 0 30 -60 0 c-57 0 -60 1 -60 25 0 20 -5 25 -25 25 -21
0 -25 5 -25 30 0 27 -3 30 -30 30 -27 0 -30 3 -30 30 0 25 -4 30 -25 30 -20 0
-25 5 -25 25 0 21 -5 25 -30 25 -30 0 -30 1 -30 55 0 52 -1 55 -25 55 -24 0
-25 3 -25 55 0 54 0 55 -30 55 l-30 0 0 280 0 280 30 0 c30 0 30 1 30 55 0 52
1 55 25 55 24 0 25 3 25 55 0 54 0 55 30 55 27 0 30 3 30 30 0 25 4 30 25 30
20 0 25 5 25 25 0 21 5 25 30 25 27 0 30 3 30 30 0 25 4 30 25 30 21 0 25 5
25 30 0 27 3 30 30 30 25 0 30 4 30 25 0 21 5 25 30 25 27 0 30 3 30 30 0 25
4 30 25 30 20 0 25 5 25 25 0 21 5 25 30 25 27 0 30 3 30 30 0 25 4 30 25 30
20 0 25 5 25 25 0 21 5 25 30 25 27 0 30 3 30 30 0 25 4 30 25 30 21 0 25 5
25 30 0 27 3 30 30 30 25 0 30 4 30 25 0 21 5 25 30 25 27 0 30 3 30 30 0 25
4 30 25 30 20 0 25 5 25 25 0 21 5 25 30 25 27 0 30 3 30 30 0 25 4 30 25 30
20 0 25 5 25 25 0 21 5 25 30 25 27 0 30 3 30 30 0 25 4 30 25 30 21 0 25 5
25 30 0 27 3 30 30 30 25 0 30 4 30 25 0 21 5 25 30 25 27 0 30 3 30 30 0 25
4 30 25 30 20 0 25 5 25 25 0 21 5 25 30 25 27 0 30 3 30 30 0 25 4 30 25 30
20 0 25 5 25 25 0 21 5 25 30 25 27 0 30 3 30 30 0 25 4 30 25 30 20 0 25 5
25 25 0 21 5 25 30 25 27 0 30 3 30 30 0 25 4 30 25 30 21 0 25 5 25 30 0 27
3 30 30 30 25 0 30 4 30 25 0 21 5 25 30 25 27 0 30 3 30 30 0 25 4 30 25 30
20 0 25 5 25 25 0 21 5 25 30 25 27 0 30 3 30 30 0 25 4 30 25 30 20 0 25 5
25 25 0 21 5 25 30 25 27 0 30 3 30 30 0 25 4 30 25 30 21 0 25 5 25 30 0 27
3 30 30 30 25 0 30 4 30 25 0 21 5 25 30 25 27 0 30 3 30 30 0 25 4 30 25 30
20 0 25 5 25 25 0 21 5 25 30 25 27 0 30 3 30 30 0 25 4 30 25 30 20 0 25 5
25 25 0 21 5 25 30 25 27 0 30 3 30 30 0 25 4 30 25 30 21 0 25 5 25 30 0 27
3 30 30 30 25 0 30 4 30 25 0 21 5 25 30 25 27 0 30 3 30 30 0 25 4 30 25 30
20 0 25 5 25 25 0 21 5 25 30 25 27 0 30 3 30 30 0 25 4 30 25 30 20 0 25 5
25 25 0 21 5 25 30 25 27 0 30 3 30 30 0 30 1 30 55 30 52 0 55 1 55 25 0 25
1 25 85 25 l85 0 0 30 0 30 195 0 195 0 0 -30z m2170 -2335 l0 -25 135 0 135
0 0 -30 0 -30 60 0 c57 0 60 -1 60 -25 0 -24 3 -25 55 -25 54 0 55 0 55 -30 0
-25 4 -30 25 -30 21 0 25 -5 25 -30 0 -27 3 -30 30 -30 25 0 30 -4 30 -25 0
-20 5 -25 25 -25 21 0 25 -5 25 -30 0 -27 3 -30 30 -30 30 0 30 -1 30 -55 0
-54 0 -55 30 -55 l30 0 0 -85 c0 -84 0 -85 25 -85 l25 0 0 -190 0 -190 -25 0
c-25 0 -25 -1 -25 -85 l0 -85 -30 0 c-30 0 -30 -1 -30 -55 0 -54 0 -55 -30
-55 -27 0 -30 -3 -30 -30 0 -25 -4 -30 -25 -30 -24 0 -25 -3 -25 -55 0 -54 0
-55 -30 -55 -27 0 -30 -3 -30 -30 0 -25 -4 -30 -25 -30 -20 0 -25 -5 -25 -25
0 -21 -5 -25 -30 -25 -27 0 -30 -3 -30 -30 0 -25 -4 -30 -25 -30 -20 0 -25 -5
-25 -25 0 -21 -5 -25 -30 -25 -27 0 -30 -3 -30 -30 0 -27 -3 -30 -30 -30 -25
0 -30 -4 -30 -25 0 -20 -5 -25 -25 -25 -21 0 -25 -5 -25 -30 0 -27 -3 -30 -30
-30 -27 0 -30 -3 -30 -30 0 -25 -4 -30 -25 -30 -20 0 -25 -5 -25 -25 0 -21 -5
-25 -30 -25 -27 0 -30 -3 -30 -30 0 -25 -4 -30 -25 -30 -20 0 -25 -5 -25 -25
0 -21 -5 -25 -30 -25 -27 0 -30 -3 -30 -30 0 -25 -4 -30 -25 -30 -20 0 -25 -5
-25 -25 0 -21 -5 -25 -30 -25 -27 0 -30 -3 -30 -30 0 -27 -3 -30 -30 -30 -25
0 -30 -4 -30 -25 0 -20 -5 -25 -25 -25 -21 0 -25 -5 -25 -30 0 -27 -3 -30 -30
-30 -27 0 -30 -3 -30 -30 0 -25 -4 -30 -25 -30 -20 0 -25 -5 -25 -25 0 -21 -5
-25 -30 -25 -27 0 -30 -3 -30 -30 0 -25 -4 -30 -25 -30 -20 0 -25 -5 -25 -25
0 -21 -5 -25 -30 -25 -27 0 -30 -3 -30 -30 0 -27 -3 -30 -30 -30 -25 0 -30 -4
-30 -25 0 -20 -5 -25 -25 -25 -21 0 -25 -5 -25 -30 0 -27 -3 -30 -30 -30 -27
0 -30 -3 -30 -30 0 -25 -4 -30 -25 -30 -20 0 -25 -5 -25 -25 0 -21 -5 -25 -30
-25 -27 0 -30 -3 -30 -30 0 -25 -4 -30 -25 -30 -20 0 -25 -5 -25 -25 0 -21 -5
-25 -30 -25 -27 0 -30 -3 -30 -30 0 -27 -3 -30 -30 -30 -25 0 -30 -4 -30 -25
0 -20 -5 -25 -25 -25 -21 0 -25 -5 -25 -30 0 -27 -3 -30 -30 -30 -27 0 -30 -3
-30 -30 0 -25 -4 -30 -25 -30 -20 0 -25 -5 -25 -25 0 -21 -5 -25 -30 -25 -27
0 -30 -3 -30 -30 0 -25 -4 -30 -25 -30 -20 0 -25 -5 -25 -25 0 -21 -5 -25 -30
-25 -27 0 -30 -3 -30 -30 0 -27 -3 -30 -30 -30 -25 0 -30 -4 -30 -25 0 -20 -5
-25 -25 -25 -21 0 -25 -5 -25 -30 0 -27 -3 -30 -30 -30 -25 0 -30 -4 -30 -25
0 -20 -5 -25 -25 -25 -21 0 -25 -5 -25 -30 0 -27 -3 -30 -30 -30 -27 0 -30 -3
-30 -30 0 -25 -4 -30 -25 -30 -20 0 -25 -5 -25 -25 0 -21 -5 -25 -30 -25 -27
0 -30 -3 -30 -30 0 -30 -1 -30 -55 -30 -52 0 -55 -1 -55 -25 0 -21 -5 -25 -30
-25 -27 0 -30 -3 -30 -30 0 -25 -4 -30 -25 -30 -20 0 -25 -5 -25 -25 0 -24 -3
-25 -55 -25 -54 0 -55 0 -55 -30 l0 -30 -310 0 -310 0 0 30 c0 30 -1 30 -55
30 -52 0 -55 1 -55 25 0 24 -3 25 -55 25 -54 0 -55 0 -55 30 0 25 -4 30 -25
30 -20 0 -25 5 -25 25 0 21 -5 25 -30 25 -27 0 -30 3 -30 30 0 25 -4 30 -25
30 -20 0 -25 5 -25 25 0 21 -5 25 -30 25 l-30 0 0 60 0 60 -30 0 -30 0 0 80
c0 79 0 80 -25 80 l-25 0 0 225 0 225 25 0 c24 0 25 3 25 55 0 54 0 55 30 55
30 0 30 1 30 55 0 54 0 55 30 55 27 0 30 3 30 30 0 25 4 30 25 30 24 0 25 3
25 55 0 54 0 55 30 55 25 0 30 4 30 25 0 20 5 25 25 25 21 0 25 5 25 30 0 27
3 30 30 30 25 0 30 4 30 25 0 20 5 25 25 25 21 0 25 5 25 30 0 27 3 30 30 30
27 0 30 3 30 30 0 25 4 30 25 30 20 0 25 5 25 25 0 21 5 25 30 25 27 0 30 3
30 30 0 27 3 30 30 30 25 0 30 4 30 25 0 20 5 25 25 25 21 0 25 5 25 30 0 27
3 30 30 30 25 0 30 4 30 25 0 20 5 25 25 25 21 0 25 5 25 30 0 27 3 30 30 30
25 0 30 4 30 25 0 20 5 25 25 25 21 0 25 5 25 30 0 27 3 30 30 30 27 0 30 3
30 30 0 27 3 30 30 30 25 0 30 4 30 25 0 20 5 25 25 25 21 0 25 5 25 30 0 27
3 30 30 30 25 0 30 4 30 25 0 20 5 25 25 25 21 0 25 5 25 30 0 27 3 30 30 30
25 0 30 4 30 25 0 20 5 25 25 25 21 0 25 5 25 30 0 27 3 30 30 30 27 0 30 3
30 30 0 27 3 30 30 30 25 0 30 4 30 25 0 20 5 25 25 25 21 0 25 5 25 30 0 27
3 30 30 30 25 0 30 4 30 25 0 20 5 25 25 25 21 0 25 5 25 30 0 27 3 30 30 30
25 0 30 4 30 25 0 20 5 25 25 25 21 0 25 5 25 30 0 27 3 30 30 30 27 0 30 3
30 30 0 25 4 30 25 30 20 0 25 5 25 25 0 21 5 25 30 25 27 0 30 3 30 30 0 27
3 30 30 30 25 0 30 4 30 25 0 20 5 25 25 25 21 0 25 5 25 30 0 27 3 30 30 30
25 0 30 4 30 25 0 20 5 25 25 25 21 0 25 5 25 30 0 27 3 30 30 30 25 0 30 4
30 25 0 20 5 25 25 25 21 0 25 5 25 30 0 27 3 30 30 30 27 0 30 3 30 30 0 27
3 30 30 30 25 0 30 4 30 25 0 20 5 25 25 25 21 0 25 5 25 30 0 27 3 30 30 30
25 0 30 4 30 25 0 20 5 25 25 25 21 0 25 5 25 30 0 27 3 30 30 30 25 0 30 4
30 25 0 20 5 25 25 25 21 0 25 5 25 30 l0 30 60 0 60 0 0 30 c0 25 4 30 25 30
20 0 25 5 25 25 0 24 3 25 55 25 54 0 55 0 55 30 l0 30 140 0 140 0 0 25 c0
21 5 25 30 25 25 0 30 -4 30 -25z m2560 -2395 l0 -30 80 0 c79 0 80 0 80 -25
0 -24 3 -25 55 -25 54 0 55 0 55 -30 0 -27 3 -30 30 -30 25 0 30 -4 30 -25 0
-21 5 -25 30 -25 27 0 30 -3 30 -30 0 -25 4 -30 25 -30 20 0 25 -5 25 -25 0
-21 5 -25 30 -25 l30 0 0 -60 c0 -57 1 -60 25 -60 24 0 25 -3 25 -55 0 -54 0
-55 30 -55 l30 0 0 -275 0 -275 -30 0 c-30 0 -30 -1 -30 -55 0 -52 -1 -55 -25
-55 -24 0 -25 -3 -25 -60 l0 -60 -30 0 c-25 0 -30 -4 -30 -25 0 -20 -5 -25
-25 -25 -21 0 -25 -5 -25 -30 0 -27 -3 -30 -30 -30 -25 0 -30 -4 -30 -25 0
-21 -5 -25 -30 -25 -27 0 -30 -3 -30 -30 0 -25 -4 -30 -25 -30 -20 0 -25 -5
-25 -25 0 -21 -5 -25 -30 -25 -27 0 -30 -3 -30 -30 0 -25 -4 -30 -25 -30 -21
0 -25 -5 -25 -30 0 -27 -3 -30 -30 -30 -25 0 -30 -4 -30 -25 0 -20 -5 -25 -25
-25 -21 0 -25 -5 -25 -30 0 -27 -3 -30 -30 -30 -25 0 -30 -4 -30 -25 0 -20 -5
-25 -25 -25 -21 0 -25 -5 -25 -30 0 -27 -3 -30 -30 -30 -25 0 -30 -4 -30 -25
0 -21 -5 -25 -30 -25 -27 0 -30 -3 -30 -30 0 -25 -4 -30 -25 -30 -21 0 -25 -5
-25 -30 0 -27 -3 -30 -30 -30 -25 0 -30 -4 -30 -25 0 -20 -5 -25 -25 -25 -21
0 -25 -5 -25 -30 0 -27 -3 -30 -30 -30 -25 0 -30 -4 -30 -25 0 -20 -5 -25 -25
-25 -21 0 -25 -5 -25 -30 0 -27 -3 -30 -30 -30 -25 0 -30 -4 -30 -25 0 -21 -5
-25 -30 -25 -27 0 -30 -3 -30 -30 0 -25 -4 -30 -25 -30 -21 0 -25 -5 -25 -30
0 -27 -3 -30 -30 -30 -25 0 -30 -4 -30 -25 0 -20 -5 -25 -25 -25 -21 0 -25 -5
-25 -30 0 -27 -3 -30 -30 -30 -25 0 -30 -4 -30 -25 0 -20 -5 -25 -25 -25 -21
0 -25 -5 -25 -30 0 -27 -3 -30 -30 -30 -25 0 -30 -4 -30 -25 0 -21 -5 -25 -30
-25 -27 0 -30 -3 -30 -30 0 -25 -4 -30 -25 -30 -20 0 -25 -5 -25 -25 0 -21 -5
-25 -30 -25 -27 0 -30 -3 -30 -30 0 -25 -4 -30 -25 -30 -21 0 -25 -5 -25 -30
0 -27 -3 -30 -30 -30 -25 0 -30 -4 -30 -25 0 -20 -5 -25 -25 -25 -21 0 -25 -5
-25 -30 0 -27 -3 -30 -30 -30 -25 0 -30 -4 -30 -25 0 -20 -5 -25 -25 -25 -21
0 -25 -5 -25 -30 0 -27 -3 -30 -30 -30 -25 0 -30 -4 -30 -25 0 -21 -5 -25 -30
-25 -27 0 -30 -3 -30 -30 0 -25 -4 -30 -25 -30 -21 0 -25 -5 -25 -30 0 -27 -3
-30 -30 -30 -25 0 -30 -4 -30 -25 0 -20 -5 -25 -25 -25 -21 0 -25 -5 -25 -30
0 -27 -3 -30 -30 -30 -25 0 -30 -4 -30 -25 0 -20 -5 -25 -25 -25 -21 0 -25 -5
-25 -30 0 -27 -3 -30 -30 -30 -25 0 -30 -4 -30 -25 0 -21 -5 -25 -30 -25 -27
0 -30 -3 -30 -30 0 -25 -4 -30 -25 -30 -21 0 -25 -5 -25 -30 0 -27 -3 -30 -30
-30 -25 0 -30 -4 -30 -25 0 -20 -5 -25 -25 -25 -21 0 -25 -5 -25 -30 0 -27 -3
-30 -30 -30 -25 0 -30 -4 -30 -25 0 -24 -3 -25 -55 -25 -54 0 -55 0 -55 -30
l0 -30 -85 0 c-84 0 -85 0 -85 -25 l0 -25 -195 0 -195 0 0 25 c0 25 -1 25 -80
25 l-80 0 0 30 c0 27 -3 30 -30 30 -25 0 -30 4 -30 25 0 24 -3 25 -55 25 -54
0 -55 0 -55 30 0 27 -3 30 -30 30 -25 0 -30 4 -30 25 0 20 -5 25 -25 25 -21 0
-25 5 -25 30 0 27 -3 30 -30 30 -30 0 -30 1 -30 55 0 52 -1 55 -25 55 -24 0
-25 3 -25 55 0 54 0 55 -30 55 l-30 0 0 115 0 115 -25 0 c-24 0 -25 3 -25 55
0 52 1 55 25 55 l25 0 0 140 0 140 30 0 c30 0 30 1 30 55 0 52 1 55 25 55 20
0 25 5 25 25 0 21 5 25 30 25 30 0 30 1 30 55 0 52 1 55 25 55 21 0 25 5 25
30 0 27 3 30 30 30 25 0 30 4 30 25 0 21 5 25 30 25 27 0 30 3 30 30 0 25 4
30 25 30 21 0 25 5 25 30 0 27 3 30 30 30 25 0 30 4 30 25 0 20 5 25 25 25 21
0 25 5 25 30 0 27 3 30 30 30 25 0 30 4 30 25 0 20 5 25 25 25 21 0 25 5 25
30 0 27 3 30 30 30 25 0 30 4 30 25 0 21 5 25 30 25 27 0 30 3 30 30 0 25 4
30 25 30 21 0 25 5 25 30 0 27 3 30 30 30 25 0 30 4 30 25 0 20 5 25 25 25 21
0 25 5 25 30 0 27 3 30 30 30 25 0 30 4 30 25 0 20 5 25 25 25 21 0 25 5 25
30 0 27 3 30 30 30 25 0 30 4 30 25 0 20 5 25 25 25 21 0 25 5 25 30 0 27 3
30 30 30 27 0 30 3 30 30 0 27 3 30 30 30 25 0 30 4 30 25 0 20 5 25 25 25 21
0 25 5 25 30 0 27 3 30 30 30 25 0 30 4 30 25 0 20 5 25 25 25 21 0 25 5 25
30 0 27 3 30 30 30 25 0 30 4 30 25 0 20 5 25 25 25 21 0 25 5 25 30 0 27 3
30 30 30 27 0 30 3 30 30 0 27 3 30 30 30 25 0 30 4 30 25 0 20 5 25 25 25 21
0 25 5 25 30 0 27 3 30 30 30 25 0 30 4 30 25 0 20 5 25 25 25 21 0 25 5 25
30 0 27 3 30 30 30 25 0 30 4 30 25 0 20 5 25 25 25 21 0 25 5 25 30 0 27 3
30 30 30 25 0 30 4 30 25 0 21 5 25 30 25 27 0 30 3 30 30 0 25 4 30 25 30 21
0 25 5 25 30 0 27 3 30 30 30 25 0 30 4 30 25 0 20 5 25 25 25 21 0 25 5 25
30 0 27 3 30 30 30 25 0 30 4 30 25 0 20 5 25 25 25 21 0 25 5 25 30 0 27 3
30 30 30 25 0 30 4 30 25 0 20 5 25 25 25 21 0 25 5 25 30 0 27 3 30 30 30 27
0 30 3 30 30 0 27 3 30 30 30 25 0 30 4 30 25 0 20 5 25 25 25 21 0 25 5 25
30 0 27 3 30 30 30 25 0 30 4 30 25 0 24 3 25 55 25 54 0 55 0 55 30 0 25 4
30 25 30 20 0 25 5 25 25 0 25 1 25 85 25 l85 0 0 30 0 30 225 0 225 0 0 -30z
m2220 -2335 l0 -25 115 0 115 0 0 -30 c0 -30 1 -30 55 -30 54 0 55 0 55 -30 0
-30 1 -30 55 -30 52 0 55 -1 55 -25 0 -20 5 -25 25 -25 21 0 25 -5 25 -30 0
-27 3 -30 30 -30 25 0 30 -4 30 -25 0 -21 5 -25 30 -25 30 0 30 -1 30 -55 0
-52 1 -55 25 -55 21 0 25 -5 25 -30 0 -27 3 -30 30 -30 l30 0 0 -85 c0 -84 0
-85 25 -85 l25 0 0 -195 0 -195 -25 0 c-25 0 -25 -1 -25 -80 l0 -80 -30 0
c-30 0 -30 -1 -30 -55 0 -52 -1 -55 -25 -55 -21 0 -25 -5 -25 -30 0 -27 -3
-30 -30 -30 -27 0 -30 -3 -30 -30 0 -27 -3 -30 -30 -30 -25 0 -30 -4 -30 -25
0 -20 -5 -25 -25 -25 -21 0 -25 -5 -25 -30 0 -27 -3 -30 -30 -30 -25 0 -30 -4
-30 -25 0 -20 -5 -25 -25 -25 -21 0 -25 -5 -25 -30 0 -27 -3 -30 -30 -30 -25
0 -30 -4 -30 -25 0 -20 -5 -25 -25 -25 -21 0 -25 -5 -25 -30 0 -27 -3 -30 -30
-30 -25 0 -30 -4 -30 -25 0 -21 -5 -25 -30 -25 -27 0 -30 -3 -30 -30 0 -25 -4
-30 -25 -30 -21 0 -25 -5 -25 -30 0 -27 -3 -30 -30 -30 -25 0 -30 -4 -30 -25
0 -20 -5 -25 -25 -25 -21 0 -25 -5 -25 -30 0 -27 -3 -30 -30 -30 -25 0 -30 -4
-30 -25 0 -20 -5 -25 -25 -25 -21 0 -25 -5 -25 -30 0 -27 -3 -30 -30 -30 -25
0 -30 -4 -30 -25 0 -21 -5 -25 -30 -25 -27 0 -30 -3 -30 -30 0 -25 -4 -30 -25
-30 -21 0 -25 -5 -25 -30 0 -27 -3 -30 -30 -30 -25 0 -30 -4 -30 -25 0 -20 -5
-25 -25 -25 -21 0 -25 -5 -25 -30 0 -27 -3 -30 -30 -30 -25 0 -30 -4 -30 -25
0 -20 -5 -25 -25 -25 -21 0 -25 -5 -25 -30 0 -27 -3 -30 -30 -30 -25 0 -30 -4
-30 -25 0 -21 -5 -25 -30 -25 -27 0 -30 -3 -30 -30 0 -25 -4 -30 -25 -30 -21
0 -25 -5 -25 -30 0 -27 -3 -30 -30 -30 -25 0 -30 -4 -30 -25 0 -20 -5 -25 -25
-25 -21 0 -25 -5 -25 -30 0 -27 -3 -30 -30 -30 -25 0 -30 -4 -30 -25 0 -20 -5
-25 -25 -25 -21 0 -25 -5 -25 -30 0 -27 -3 -30 -30 -30 -25 0 -30 -4 -30 -25
0 -20 -5 -25 -25 -25 -21 0 -25 -5 -25 -30 0 -27 -3 -30 -30 -30 -25 0 -30 -4
-30 -25 0 -21 -5 -25 -30 -25 -27 0 -30 -3 -30 -30 0 -25 -4 -30 -25 -30 -21
0 -25 -5 -25 -30 0 -27 -3 -30 -30 -30 -25 0 -30 -4 -30 -25 0 -20 -5 -25 -25
-25 -21 0 -25 -5 -25 -30 0 -27 -3 -30 -30 -30 -25 0 -30 -4 -30 -25 0 -20 -5
-25 -25 -25 -21 0 -25 -5 -25 -30 0 -27 -3 -30 -30 -30 -25 0 -30 -4 -30 -25
0 -21 -5 -25 -30 -25 -27 0 -30 -3 -30 -30 0 -25 -4 -30 -25 -30 -21 0 -25 -5
-25 -30 0 -27 -3 -30 -30 -30 -25 0 -30 -4 -30 -25 0 -20 -5 -25 -25 -25 -21
0 -25 -5 -25 -30 0 -27 -3 -30 -30 -30 -25 0 -30 -4 -30 -25 0 -20 -5 -25 -25
-25 -21 0 -25 -5 -25 -30 0 -27 -3 -30 -30 -30 -25 0 -30 -4 -30 -25 0 -21 -5
-25 -30 -25 -27 0 -30 -3 -30 -30 0 -30 -1 -30 -55 -30 -54 0 -55 0 -55 -30 0
-30 -1 -30 -55 -30 -52 0 -55 -1 -55 -25 l0 -25 -275 0 -275 0 0 25 c0 24 -3
25 -60 25 l-60 0 0 30 c0 30 -1 30 -55 30 -54 0 -55 0 -55 30 0 25 -4 30 -25
30 -20 0 -25 5 -25 25 0 21 -5 25 -30 25 -27 0 -30 3 -30 30 0 25 -4 30 -25
30 -20 0 -25 5 -25 25 0 21 -5 25 -30 25 -30 0 -30 1 -30 55 0 54 0 55 -30 55
l-30 0 0 85 c0 84 0 85 -25 85 l-25 0 0 225 0 225 25 0 c25 0 25 1 25 80 l0
80 30 0 c27 0 30 3 30 30 0 27 3 30 30 30 30 0 30 1 30 55 0 52 1 55 25 55 21
0 25 5 25 30 0 27 3 30 30 30 25 0 30 4 30 25 0 20 5 25 25 25 21 0 25 5 25
30 0 27 3 30 30 30 25 0 30 4 30 25 0 20 5 25 25 25 21 0 25 5 25 30 0 27 3
30 30 30 25 0 30 4 30 25 0 21 5 25 30 25 27 0 30 3 30 30 0 25 4 30 25 30 21
0 25 5 25 30 0 27 3 30 30 30 25 0 30 4 30 25 0 20 5 25 25 25 21 0 25 5 25
30 0 27 3 30 30 30 25 0 30 4 30 25 0 20 5 25 25 25 21 0 25 5 25 30 0 27 3
30 30 30 25 0 30 4 30 25 0 21 5 25 30 25 27 0 30 3 30 30 0 25 4 30 25 30 21
0 25 5 25 30 0 27 3 30 30 30 25 0 30 4 30 25 0 20 5 25 25 25 21 0 25 5 25
30 0 27 3 30 30 30 25 0 30 4 30 25 0 20 5 25 25 25 21 0 25 5 25 30 0 27 3
30 30 30 25 0 30 4 30 25 0 20 5 25 25 25 21 0 25 5 25 30 0 27 3 30 30 30 25
0 30 4 30 25 0 21 5 25 30 25 27 0 30 3 30 30 0 25 4 30 25 30 21 0 25 5 25
30 0 27 3 30 30 30 25 0 30 4 30 25 0 20 5 25 25 25 21 0 25 5 25 30 0 27 3
30 30 30 25 0 30 4 30 25 0 20 5 25 25 25 21 0 25 5 25 30 0 27 3 30 30 30 25
0 30 4 30 25 0 21 5 25 30 25 27 0 30 3 30 30 0 25 4 30 25 30 21 0 25 5 25
30 0 27 3 30 30 30 25 0 30 4 30 25 0 20 5 25 25 25 21 0 25 5 25 30 0 27 3
30 30 30 25 0 30 4 30 25 0 20 5 25 25 25 21 0 25 5 25 30 0 27 3 30 30 30 25
0 30 4 30 25 0 21 5 25 30 25 27 0 30 3 30 30 0 25 4 30 25 30 21 0 25 5 25
30 0 27 3 30 30 30 25 0 30 4 30 25 0 20 5 25 25 25 21 0 25 5 25 30 0 27 3
30 30 30 25 0 30 4 30 25 0 20 5 25 25 25 21 0 25 5 25 30 0 27 3 30 30 30 25
0 30 4 30 25 0 20 5 25 25 25 21 0 25 5 25 30 0 27 3 30 30 30 25 0 30 4 30
25 0 24 3 25 55 25 54 0 55 0 55 30 0 30 1 30 55 30 54 0 55 0 55 30 l0 30
115 0 115 0 0 25 c0 25 1 25 80 25 79 0 80 0 80 -25z"/>
</g>
</svg>
